<?xml version="1.0" encoding="utf-8"?>
<!-- Generator: Adobe Illustrator 23.0.3, SVG Export Plug-In . SVG Version: 6.00 Build 0)  -->
<svg version="1.1" xmlns="http://www.w3.org/2000/svg" xmlns:xlink="http://www.w3.org/1999/xlink" x="0px" y="0px"
	 viewBox="0 0 415.6 316.9" style="enable-background:new 0 0 415.6 316.9;" xml:space="preserve">
<style type="text/css">
	.st0{fill:#5179B5;}
	.st1{fill:#3D4051;}
	.st2{fill:#FFD175;}
	.st3{fill:#FFB485;}
	.st4{fill:#FF9B70;}
	.st5{fill:#777778;}
	.st6{fill:#F0E7D6;}
	.st7{fill:#F7F3EC;}
	.st8{fill:#434342;}
	.st9{fill:#FFFFFF;}
	.st10{fill:#004456;}
	.st11{fill:#005A67;}
	.st12{fill:#A9A9AA;}
	.st13{fill:#D24936;}
	.st14{fill:#2A519F;}
	.st15{fill:#F9A31A;}
	.st16{fill:#FFC13E;}
</style>
<g id="OBJECTS">
	<g>
		<g>
			<g>
				<g>
					<path class="st0" d="M415.6,0v312.3H255.8c-22.2-4.4-38.9-23.7-38.9-46.9v-10.8c0-26.4-21.8-47.8-48.6-47.8
						c-13.4,0-25.5-5.4-34.3-14c-8.8-8.6-14.2-20.6-14.2-33.8v-8.7c0-26.6-22.1-47.6-49-47.8c-19.2-0.1-36.5-7.8-49.1-20.3
						C9,69.6,1.1,52.3,1.1,33.2V0H415.6z"/>
					<path class="st1" d="M355,312.4c0,0,11-90.9,8.1-97.3c-8.2-18.5-68.2-28.4-68.2-28.4v125.7H355z"/>
				</g>
				<path class="st2" d="M246.2,106.7c7.5,0,11.6-7,18.4-10.2c9.2,5.6,16,20.2,18.2,30.7c2.2,10.5,4.6,22.1,13.1,28.6
					c4.7,3.6,10.7,5.2,16.5,6.7c5.8,1.5,11.7,3.3,16.2,7.1c4.5,3.9,7.2,10.6,4.7,16c7.8,1.5,14.3,8.4,16.4,16.1s0.2,16.2-4.3,22.8
					c-4.5,6.6-11.5,11.3-19.1,13.8h-80.1c-7.3-1.8-15.7-4.1-22.3-7.6c-6.6-3.5-12.6-8.8-15.3-15.7c-2.7-7-1.6-15.7,3.9-20.8
					c2.9-2.7,7-4.5,8.2-8.3c0.9-3-0.4-6.2-2.2-8.8c-1.7-2.6-3.9-5-4.9-8c-2-5.8,1.1-12.3,5.3-16.7c4.2-4.5,9.6-7.8,13.7-12.3
					C240.6,131.5,244.1,118.3,246.2,106.7z"/>
				<g>
					<g>
						<g>
							<g>
								<g>
									<polygon class="st3" points="273,174 243.5,184.4 240.8,169.4 236.1,143.4 266.4,135.1 269.9,156 									"/>
									<path class="st4" d="M269.9,156c-7.4,6.1-21.5,14.8-28.5,17l-5.3-29.6l30.3-8.3L269.9,156z"/>
								</g>
								<path class="st3" d="M233.5,162.4c11.3,4.6,33.3-14.4,35.1-20.8c1.8-6.4-6.6-35.3-11.6-37.6c-5-2.3-16.8-10.6-33.8,0.7
									c0,0-5.9,3.1-6.3,8.1c-0.1,1-0.3,3.2-0.4,6.2c0,0.7-0.1,1.5-0.1,2.3C216.2,134,217.8,156.1,233.5,162.4z"/>
								<path class="st1" d="M240.1,126.7c0.5,1.4,2.1,2.2,3.5,1.7c1.4-0.5,2.2-2.1,1.7-3.5c-0.5-1.4-2.1-2.2-3.5-1.7
									C240.3,123.7,239.6,125.3,240.1,126.7z"/>
								<path class="st1" d="M221.3,129.3c0.4,1.2,1.7,1.8,2.9,1.4c1.2-0.4,1.8-1.7,1.4-2.9c-0.4-1.2-1.7-1.8-2.9-1.4
									C221.5,126.8,220.9,128.1,221.3,129.3z"/>
								
									<ellipse transform="matrix(0.9847 -0.174 0.174 0.9847 -19.637 46.2183)" class="st4" cx="253.7" cy="135.1" rx="6.2" ry="6.2"/>
								<path class="st2" d="M231.8,119.5c0.2-2.5,2.1-4.6,4.6-5c1.2-0.2,2.4-0.2,3.6,0.1c2.6,0.6,4.8,2.2,6.1,4.4
									c-4.6-1.6-9.9-1.5-14.3,0.8C231.8,119.7,231.8,119.7,231.8,119.5z"/>
								<path class="st2" d="M216.5,121.4c2.3-0.5,4.7-0.4,6.9,0.4c0-0.1,0-0.1-0.1-0.2c-0.4-1.7-1.9-3.1-3.8-3.1
									c-0.9,0-1.8,0.1-2.6,0.4c-0.2,0.1-0.3,0.1-0.5,0.2C216.5,119.8,216.5,120.5,216.5,121.4z"/>
								<path class="st4" d="M273.7,134.4c-0.8,3.8-3.3,6.8-6.3,7.8l-5.5-12.9l-0.7-3.9c1.8-1.8,4.2-2.6,6.6-2.1
									C272.1,124.1,274.7,129.1,273.7,134.4z"/>
							</g>
							<path class="st4" d="M227.9,133c1-3.2,0.4-6.4-1.2-9.2c-0.6-1,1-1.9,1.5-0.9c1.5,2.6,2.2,5.4,1.9,8.4
								c-0.1,1.1-0.4,2.3-0.8,3.3c-0.1,0.2-1,1.6-1,1.9c0.2,2.2,2.2,2.7,4,2.5c1.1-0.1,1.1,1.7,0,1.8c-2,0.2-5.8-0.3-6.3-2.8
								C225.6,136.3,227.4,134.6,227.9,133z"/>
							<path class="st2" d="M271.6,125.5l-0.6-0.4c0,0,0,0-0.1,0c-1-0.6-2.1-0.9-3.2-0.9c-2.6,0-5,1.6-5.7,4.2
								c-0.1,0.3-0.1,0.6-0.2,0.9c0,0-11.3-6.1-25.8-24.9c0,0-10.7,12.8-19.7,12.6c0,0-1.5-13.6,8.1-21.8c0,0,0,0,0,0
								c2.5-2.1,5.8-3.9,10.1-5c3.2-0.8,6.9-1.2,11.2-1C278,90.3,271.6,125.5,271.6,125.5z"/>
						</g>
					</g>
					<path class="st5" d="M323.3,185.4C312.6,175.8,273,174,273,174l-31,2.1c0,0-31.1,5.9-33.8,9.3c-2.7,3.4-31.8,52.2-31.8,52.2
						l8.5,1.8l-8.5,18.3l23.8,20.1l8.1-13.1l7.9,47.7h90.2l1.7-53.3l6.7,12.3l33-6.7C347.9,264.6,334.1,195,323.3,185.4z"/>
					<path class="st6" d="M279.9,312.4h-46.7c0,0-6.2-59.3-8.6-85c-0.6-6.5,0.2-12.9,1.7-19c4.6-18,15.7-32.3,15.7-32.3l31-2.1
						c0,0-4.4,18.9-6.6,36.6c-0.6,5.1-1.1,10.2-1.2,14.6C264.7,244.8,279.9,312.4,279.9,312.4z"/>
					<path class="st7" d="M273,174c0,0-4.4,18.9-6.6,36.6c-0.1,0.1-0.2,0.1-0.2,0.2c-4.3,2.7-9.9,3.9-14.7,2.1
						c-4.8-1.8-8.4-6.9-7.6-12c-2.4,3.6-5.8,6.6-10,7.8c-2.5,0.7-5.2,0.6-7.6-0.3c4.6-18,15.7-32.3,15.7-32.3L273,174z"/>
					<g>
						<path class="st4" d="M143.8,186.9c0,0-8-3.3-9.7-1.6c-1.7,1.7,9.2,9.3,9.2,9.3l0.2-4.9L143.8,186.9z"/>
						<path class="st3" d="M134.9,171.9c1.2-0.6,2.6,0.8,9.9,12.5c-5.8-11.8-6.2-14.9-5.4-15.3c0.8-0.4,2.7,1.9,9.5,13.6
							c-4.9-10.5-6.3-15.4-5.1-15.4c2,0,7.6,9.6,9.7,13.3c-2.2-4-5.5-14.8-4.4-15.5c1.9-1.2,15.1,21.9,15.1,21.9
							c9.2,2.2,6.7,13.8,6.7,13.8l-17.3,0.4c0,0-9.3-5.3-10.3-6.7C142.3,193.2,132.2,173.2,134.9,171.9z"/>
					</g>
					<polygon class="st7" points="153.6,206.8 151.6,201.1 172.4,196.5 172.4,203.1 					"/>
					<path class="st5" d="M204.5,270.8c0,0-12.2,21.4-18.3,23.8c-1.6,0.7-4.6,0.2-7-2c-7.7-7.2-12.6-15.6-14.5-26.3l-14.3-58.9
						l25.3-5.1C175.7,202.3,193.6,245.9,204.5,270.8z"/>
				</g>
				<g>
					<rect x="81.1" y="305.4" class="st1" width="161.2" height="7"/>
					<path class="st8" d="M194.9,312.4H81.1l-13.6-79.6c-0.5-2.8,1.7-5.4,4.5-5.4h104.4c2.2,0,4.2,1.6,4.5,3.8L194.9,312.4z"/>
					<g>
						<path class="st9" d="M125.8,279.3c-6,0-10.9-4.9-10.9-10.9c0-6,4.9-10.9,10.9-10.9c6,0,10.9,4.9,10.9,10.9
							C136.7,274.4,131.8,279.3,125.8,279.3z M125.8,261.3c-3.9,0-7.1,3.2-7.1,7.1c0,3.9,3.2,7.1,7.1,7.1c3.9,0,7.1-3.2,7.1-7.1
							C132.9,264.5,129.7,261.3,125.8,261.3z"/>
					</g>
				</g>
				<path class="st4" d="M243.9,141.3c-2.6,2.7-6.2,4.1-10.2,3.8c-1.8-0.1-1.8,2.4,0,2.6c4.6,0.3,9.1-1.4,12.2-4.6
					C247.1,141.9,245.1,140,243.9,141.3z"/>
				<g>
					<g>
						<g>
							<path class="st10" d="M271.4,127.3l-2.9,0.4c0-0.1-0.2-1.4-0.8-3.5c-1.6-6.6-6.3-20.7-17.3-27.4c-7-4.3-16.1-4.8-25.9-1.6
								c2.5-2.1,5.8-3.9,10.1-5c6.4-0.5,12.2,0.9,17.3,4.1c12.9,7.9,17.6,24.8,18.9,30.8C271.2,126.3,271.3,127.1,271.4,127.3z"/>
						</g>
						<g>
							<path class="st10" d="M245.8,157.6l-0.9-2.8c16.2-5.1,23.6-21.8,23.6-22l2.7,1.1C271,134.8,263.3,152.1,245.8,157.6z"/>
						</g>
						<g>
							<circle class="st11" cx="270.5" cy="131" r="9.4"/>
							<circle class="st10" cx="270.5" cy="131" r="5.2"/>
						</g>
					</g>
					<path class="st11" d="M248.3,157.1c0,3.1-2.5,5.6-5.6,5.6c-3.1,0-5.6-2.5-5.6-5.6c0-3.1,2.5-5.6,5.6-5.6
						C245.8,151.4,248.3,154,248.3,157.1z"/>
				</g>
				<g>
					<path class="st5" d="M265.4,309.7c0,0,84.1,1.4,87-4.4c0.7-1.5,0.8-4.7,0.5-8.7c-0.8-12.2-5-31.9-5-31.9l-33,6.7l2.9,7.2
						l-50,8.6L265.4,309.7z"/>
					<path class="st3" d="M250.8,289.4l10.9,3.1l-1.8,14.4c-1.8,1.2-6.9,2-6.9,2c-2.3,0.4-9.7-1.5-9.7-1.5s-16.4,2.6-16.3,0.7
						c0.1-1.9,12.6-5,12.6-5s-17.9,5-16.6,2.4c1.3-2.7,11.9-6.5,11.9-6.5c-2.3,0.9-14.1,5.3-14.7,4.5c-0.9-1.4,2.8-4,11.7-8.5
						c0,0-10.5,5.3-12.4,4.3s8.7-6.6,13.4-8.6c4.9-2.2,8.7-2.5,8.7-2.5L250.8,289.4z"/>
				</g>
				<path class="st3" d="M242,176.1c0,0-8.6,22.2,0,28.7c8.6,6.5,31-30.8,31-30.8S252.3,171.6,242,176.1z"/>
				<polygon class="st7" points="267.5,289.8 262.1,288 259.4,308.9 265.4,308.9 				"/>
				<path class="st12" d="M224.6,227.4c1.2,13.1,3.4,34.9,5.3,53.1c-6-12.6-18.6-38.7-20-42.1c-1.8-4.5,6.5-15.8,6.5-15.8
					s-5.1-4.4-4.9-11.3c0.1-5.5,12.9-24.7,18.4-32.7c6.6-1.5,12.1-2.5,12.1-2.5s-11.1,14.3-15.7,32.3
					C224.8,214.5,224,220.9,224.6,227.4z"/>
				<path class="st12" d="M292.6,238.4c0.2,4.1-11.7,36.5-17.4,51.9c-4.4-21.6-10.3-52.9-9.9-65.2c0.1-4.4,0.6-9.5,1.2-14.6
					c2.2-17.6,6.6-36.6,6.6-36.6s6,0.3,14,1.2h0c2.5,12.8,6.4,34.7,5.4,39.9c-1.5,7.4-9.7,12.3-9.7,12.3S292.3,233,292.6,238.4z"/>
			</g>
			<g>
				<path class="st13" d="M312.3,312.3h77.9c5.3,0,9.5-4.3,9.5-9.5v-2.5c0-5.3-4.3-9.5-9.5-9.5h-77.9V312.3z"/>
				<path class="st9" d="M312.3,307.3h78.2c2.3,0,4.2-2.4,4.2-5.3l0,0c0-2.9-1.9-5.3-4.2-5.3h-78.2"/>
			</g>
			<g>
				<path class="st14" d="M302.9,290.8h77.9c5.3,0,9.5-4.3,9.5-9.5v-2.5c0-5.3-4.3-9.5-9.5-9.5h-77.9V290.8z"/>
				<path class="st9" d="M302.9,285.7h78.2c2.3,0,4.2-2.4,4.2-5.3l0,0c0-2.9-1.9-5.3-4.2-5.3h-78.2"/>
			</g>
			<g>
				<g>
					<g>
						<polygon class="st15" points="95.8,105.1 130.2,71.3 164.6,105.1 130.2,135.6 						"/>
						
							<rect x="107.5" y="85.6" transform="matrix(-1.836970e-16 1 -1 -1.836970e-16 239.5086 -20.8941)" class="st9" width="45.3" height="47.5"/>
						<polygon class="st16" points="95.8,105.1 130.2,135.6 130.2,145.7 95.8,145.7 						"/>
						<polygon class="st16" points="164.6,105.1 130.2,135.6 130.2,145.7 164.6,145.7 						"/>
						<polygon class="st2" points="95.8,145.7 130.2,121.4 164.6,145.7 						"/>
					</g>
					<rect x="113" y="94.5" class="st1" width="15.8" height="2.4"/>
					<rect x="113" y="100.4" class="st1" width="34.4" height="2.4"/>
					<rect x="113" y="106.2" class="st1" width="34.4" height="2.4"/>
					<rect x="113" y="112" class="st1" width="34.4" height="2.4"/>
				</g>
				<g>
					<polygon class="st9" points="148.4,71.2 154.9,68 160,86 					"/>
					<polygon class="st9" points="176.3,80.3 180,85 166.1,92.1 					"/>
					<polygon class="st9" points="164.3,61.8 175.3,64.1 162.6,90.4 					"/>
				</g>
			</g>
			<g>
				<polygon class="st9" points="313.1,112.2 302.4,134.3 328.3,121.2 				"/>
				<g>
					<path class="st9" d="M362.7,122.8h-45.8c-2.6,0-4.7-2.1-4.7-4.7V91.9c0-2.6,2.1-4.7,4.7-4.7h45.8c2.6,0,4.7,2.1,4.7,4.7v26.3
						C367.4,120.7,365.3,122.8,362.7,122.8z"/>
					<g>
						<path class="st14" d="M328.3,105c0,2-1.6,3.7-3.7,3.7c-2,0-3.7-1.6-3.7-3.7s1.6-3.7,3.7-3.7C326.7,101.3,328.3,103,328.3,105z
							"/>
						<path class="st14" d="M343.5,105c0,2-1.6,3.7-3.7,3.7s-3.7-1.6-3.7-3.7s1.6-3.7,3.7-3.7S343.5,103,343.5,105z"/>
						<path class="st14" d="M358.7,105c0,2-1.6,3.7-3.7,3.7s-3.7-1.6-3.7-3.7s1.6-3.7,3.7-3.7S358.7,103,358.7,105z"/>
					</g>
				</g>
			</g>
			<g>
				<path class="st13" d="M91.8,203.8H57.9c-1.5,0-2.6-1.2-2.6-2.6V178c0-1.5,1.2-2.6,2.6-2.6h33.9c1.5,0,2.6,1.2,2.6,2.6v23.2
					C94.4,202.6,93.2,203.8,91.8,203.8z"/>
				<polygon class="st13" points="94.4,190.9 94.4,216.5 84.5,203.7 				"/>
				<g>
					<g>
						<path class="st9" d="M75,179.7c3.7,0,6,1.8,6,4.9c0,4.2-4.3,4.8-4.3,8H73c0-4.3,3.4-4.5,3.4-7.2c0-1.2-0.7-1.7-1.9-1.7
							c-1.4,0-2.1,0.8-2.1,2.5h-3.8C68.6,182,71,179.7,75,179.7z M77.2,197.1c0,1.4-1,2.4-2.4,2.4c-1.4,0-2.4-1-2.4-2.4
							c0-1.4,1-2.4,2.4-2.4C76.2,194.7,77.2,195.7,77.2,197.1z"/>
					</g>
				</g>
			</g>
			<g>
				<path class="st13" d="M161.5,201.3h55.9c2.1,0,3.8-1.7,3.8-3.8v-28c0-2.1-1.7-3.8-3.8-3.8h-55.9c-2.1,0-3.8,1.7-3.8,3.8v28
					C157.7,199.6,159.4,201.3,161.5,201.3z"/>
				<polygon class="st13" points="157.7,187.4 157.7,215 168.4,201.2 				"/>
				<g>
					<rect x="165.2" y="173.7" class="st9" width="48.5" height="3.5"/>
					<rect x="165.2" y="181.8" class="st9" width="48.5" height="3.5"/>
					<rect x="165.2" y="189.9" class="st9" width="48.5" height="3.5"/>
				</g>
			</g>
		</g>
	</g>
</g>
<g id="DESIGNED_BY_FREEPIK">
</g>
</svg>
