<svg width="36" height="36" viewBox="0 0 36 36" fill="none" xmlns="http://www.w3.org/2000/svg">
<g clip-path="url(#clip0_35_4664)">
<path fill-rule="evenodd" clip-rule="evenodd" d="M12.3323 22.4108C14.5696 26.6998 21.3446 26.5259 23.1324 22.4108C25.7403 24.7575 31.4139 23.8141 33.787 26.9471C35.0449 28.6081 35.1412 31.2631 35.4646 33.3286C35.3621 34.4203 34.7422 35.0499 33.5231 35.1427H1.94155C0.722453 35.0499 0.102515 34.4203 0 33.3286C0.324169 31.2631 0.419757 28.6074 1.67764 26.9471C4.04865 23.8148 9.72507 24.7568 12.3323 22.4108ZM15.0697 2.65655C14.997 2.65933 14.9263 2.64547 14.8612 2.624C13 3.4552 11.4935 5.28454 11.0848 8.32951C11.0411 8.66615 10.7211 8.90096 10.372 8.86079C10.0222 8.81715 9.77563 8.51099 9.81927 8.17782C10.2958 4.62858 12.1169 2.48269 14.368 1.49633C15.5033 0.998306 16.7418 0.800203 17.9664 0.870855C19.1883 0.938736 20.3991 1.27191 21.4887 1.83505C23.7939 3.0299 25.5498 5.26237 25.6772 8.23531C25.6904 8.57333 25.4168 8.85802 25.0649 8.87187C24.7123 8.88503 24.4173 8.62251 24.4034 8.28379C24.2981 5.79365 22.8214 3.92206 20.884 2.91631C20.8001 2.87267 20.7191 2.83249 20.6325 2.79162C20.5619 2.81656 20.4864 2.82972 20.4046 2.82695C19.2943 2.80063 19.6704 7.63476 19.6704 8.75758C19.6704 9.10184 19.3857 9.38098 19.0366 9.38098C18.6868 9.38098 18.4021 9.10184 18.4021 8.75758C18.4021 6.99751 18.1022 3.52239 19.0172 2.24719C18.6466 2.16892 18.2698 2.11697 17.893 2.09549C17.4192 2.06848 16.9448 2.08995 16.4786 2.15783C17.343 3.49815 17.0507 6.96218 17.0507 8.75758C17.0507 9.09907 16.7744 9.37544 16.4329 9.37544C16.0914 9.37544 15.815 9.09907 15.815 8.75758C15.815 7.60636 16.1994 2.62469 15.0697 2.65655ZM25.0691 10.9852C25.6509 12.3996 25.7659 13.5495 25.2609 15.0373L25.2575 15.0449C25.1099 15.4633 24.9091 15.8415 24.6742 16.1165C24.4748 16.3506 24.2469 16.5141 24.0003 16.5723L23.8645 17.0821C23.4531 18.599 22.6413 19.9282 21.5468 20.8516L21.5358 20.8592C20.503 21.7264 19.2202 22.2328 17.785 22.1947C16.2743 22.1704 15.0108 21.6239 13.9988 20.7331C12.8746 19.744 12.0607 18.3303 11.5627 16.7385C11.5378 16.6346 11.4941 16.5175 11.4602 16.4136C11.0585 16.3645 10.7426 16.0666 10.5029 15.6725C9.89546 14.6716 9.76316 13.4795 10.0562 12.3608C10.1663 11.939 10.3194 11.5262 10.4704 11.1618C9.75208 10.7788 9.07188 10.2475 8.71654 9.49735L9.87607 8.99101C10.7814 10.9028 15.5179 11.2422 17.2862 11.2477C19.8817 11.256 22.5263 10.8335 24.2219 10.0286C24.8917 9.71138 25.3925 9.34289 25.6502 8.93144L26.7446 9.55969C26.3969 10.1173 25.8158 10.5932 25.0691 10.9852ZM11.607 11.6529C10.6041 12.6587 11.3625 15.6205 11.9118 15.5104C12.3974 15.3698 12.4916 16.0964 12.5879 16.4074C13.1129 18.074 14.0598 19.2917 15.1778 20.0328C16.0117 20.5863 16.9427 20.8758 17.8639 20.889C18.7845 20.9021 19.6995 20.6417 20.5023 20.0959C21.4824 19.4302 22.2998 18.3379 22.7687 16.8008C22.8484 16.4885 22.9523 15.6226 23.433 15.7154C24.2067 15.8671 24.4401 13.6506 24.3674 13.0868C24.3078 12.6206 24.154 12.1648 23.9469 11.5608C23.9388 11.5365 23.9365 11.5107 23.94 11.4853L23.9414 11.4728C20.6485 12.6525 15.0926 12.8734 11.607 11.6529Z" fill="#0DA8DB"/>
</g>
<defs>
<clipPath id="clip0_35_4664">
<rect width="35.4646" height="34.2857" fill="white" transform="translate(0 0.857117)"/>
</clipPath>
</defs>
</svg>
