<svg width="60" height="60" viewBox="0 0 60 60" fill="none" xmlns="http://www.w3.org/2000/svg">
<circle cx="30" cy="30" r="29.5" stroke="#0DA8DB"/>
<circle cx="29.9999" cy="30" r="25.7143" fill="#0DA8DB"/>
<g clip-path="url(#clip0_35_4660)">
<path d="M16.6795 26.6798L15.0891 22.2406C15.0461 22.1208 15.0271 21.9937 15.0333 21.8666C15.0395 21.7394 15.0707 21.6147 15.1251 21.4997C15.1796 21.3846 15.2561 21.2814 15.3505 21.196C15.4448 21.1105 15.5551 21.0445 15.675 21.0018C15.7483 20.9771 15.8241 20.9603 15.901 20.9515L20.4741 20.4744L20.9484 15.8678C20.9613 15.7412 20.9991 15.6183 21.0595 15.5063C21.1199 15.3943 21.2019 15.2952 21.3006 15.2149C21.3993 15.1346 21.5129 15.0745 21.6349 15.0381C21.7569 15.0017 21.8849 14.9898 22.0115 15.0029C22.079 15.0085 22.1456 15.0225 22.2096 15.0447L26.6739 16.1915L29.2632 13.1948C29.431 13.0004 29.6689 12.8802 29.9249 12.8604C30.181 12.8405 30.4345 12.9226 30.6304 13.0888C30.6943 13.1452 30.7514 13.2089 30.8006 13.2786L33.3117 16.6742L37.7509 15.0559C37.8716 15.0121 37.9997 14.9928 38.128 14.9989C38.2562 15.005 38.3819 15.0364 38.4979 15.0914C38.6139 15.1464 38.7178 15.2239 38.8037 15.3193C38.8895 15.4148 38.9556 15.5263 38.9981 15.6474C39.0253 15.7221 39.0431 15.7999 39.0511 15.879L39.5254 20.4856L44.132 20.9488C44.2903 20.9648 44.4421 21.0195 44.5742 21.1082C44.7063 21.1968 44.8144 21.3166 44.8892 21.457C44.9639 21.5974 45.0029 21.7541 45.0028 21.9131C45.0026 22.0722 44.9632 22.2287 44.8882 22.369L42.8513 26.211L46.7576 29.2328C46.8585 29.3104 46.9431 29.4072 47.0065 29.5176C47.0698 29.628 47.1107 29.7499 47.1268 29.8762C47.1429 30.0025 47.1338 30.1307 47.1002 30.2535C47.0665 30.3763 47.0088 30.4912 46.9306 30.5916C46.8744 30.6669 46.8066 30.7329 46.7297 30.7869L43.3257 33.3176L44.944 37.7568C45.0312 37.9984 45.019 38.2648 44.9103 38.4975C44.8015 38.7302 44.6049 38.9103 44.3636 38.9984C44.2889 39.0256 44.2111 39.0434 44.132 39.0514L39.5254 39.5258L39.0511 44.1072C39.0244 44.3627 38.8975 44.5972 38.6982 44.7593C38.499 44.9214 38.2436 44.9979 37.9881 44.9722C37.8644 44.959 37.7443 44.9231 37.6337 44.8662L33.7833 42.8489L30.7559 46.7551C30.664 46.8752 30.5452 46.9721 30.409 47.0379C30.2728 47.1037 30.123 47.1365 29.9718 47.1338C29.8206 47.1311 29.6721 47.0929 29.5383 47.0223C29.4046 46.9516 29.2893 46.8506 29.2018 46.7272L26.6683 43.3092L22.2291 44.9108C22.0931 44.9585 21.9481 44.9753 21.8047 44.9598C21.6614 44.9443 21.5233 44.897 21.4005 44.8213C21.2778 44.7457 21.1735 44.6435 21.0953 44.5224C21.0171 44.4013 20.9669 44.2642 20.9484 44.1212L20.4741 40.0029L15.795 39.0347C15.6705 39.0094 15.5522 38.9598 15.4469 38.8887C15.3416 38.8176 15.2514 38.7265 15.1814 38.6205C15.1114 38.5145 15.0631 38.3957 15.0391 38.2709C15.0151 38.1462 15.016 38.0179 15.0416 37.8935C15.0503 37.8341 15.0662 37.776 15.0891 37.7205L16.6795 33.3204L13.2475 30.7786C13.0415 30.6251 12.9046 30.3962 12.8669 30.142C12.8293 29.8879 12.8939 29.6291 13.0466 29.4225C13.1068 29.3419 13.1793 29.2713 13.2615 29.2133L16.6795 26.6798ZM34.0874 24.9499L28.3871 34.8606C28.333 34.9589 28.2705 35.0523 28.2001 35.1396C28.1377 35.2201 28.0599 35.2875 27.9713 35.3377C27.8752 35.3851 27.7711 35.4144 27.6644 35.4242C27.5431 35.4385 27.421 35.445 27.2989 35.4437H26.2219C26.1365 35.4437 26.0546 35.41 25.994 35.3499C25.9334 35.2898 25.8989 35.2082 25.8982 35.1229C25.8983 35.056 25.9188 34.9908 25.9568 34.9359L31.6599 25.014C31.7126 24.9162 31.7732 24.8229 31.8413 24.735V24.7183C31.9024 24.6452 31.9761 24.5838 32.0589 24.5369C32.1628 24.4908 32.2746 24.4652 32.3882 24.4616C32.5076 24.4473 32.6278 24.4408 32.7481 24.4421H33.8223C33.9077 24.4421 33.9896 24.4758 34.0502 24.5359C34.1108 24.596 34.1452 24.6776 34.146 24.7629C34.1459 24.8297 34.1254 24.8949 34.0874 24.9499ZM32.0227 35.014C31.5427 34.5118 31.3 33.7417 31.3 32.7038C31.3 31.6658 31.5427 30.8957 32.0227 30.3935C32.5026 29.8913 33.2838 29.6402 34.3664 29.6402C35.449 29.6402 36.2302 29.8913 36.7102 30.3935C37.1901 30.8957 37.43 31.6658 37.43 32.7038C37.43 33.7417 37.1901 34.5118 36.7102 35.014C36.2302 35.5163 35.449 35.7674 34.3664 35.7674C33.2838 35.7674 32.5026 35.5163 32.0227 35.014ZM33.6968 31.8221V34.0542H34.0595C34.3653 34.061 34.671 34.0366 34.9719 33.9817C35.0333 33.9315 35.0639 33.7947 35.0639 33.5743V31.3422H34.2269C34.0761 31.326 33.9237 31.351 33.786 31.4147C33.7275 31.4649 33.6968 31.6017 33.6968 31.8221ZM23.2894 29.5983C22.8095 29.0961 22.5695 28.326 22.5695 27.288C22.5695 26.2501 22.8095 25.48 23.2894 24.9778C23.7693 24.4755 24.5506 24.2244 25.6331 24.2244C26.7157 24.2244 27.497 24.4755 27.9769 24.9778C28.4568 25.48 28.6968 26.2501 28.6968 27.288C28.6968 28.326 28.4568 29.0961 27.9769 29.5983C27.497 30.1005 26.7157 30.3517 25.6331 30.3517C24.5506 30.3517 23.7693 30.1005 23.2894 29.5983ZM24.9635 26.4063V28.6385H25.8006C25.9507 28.6543 26.1024 28.6282 26.2386 28.5631C26.3 28.5129 26.3307 28.3762 26.3307 28.1558V25.9236H25.9512C25.6462 25.9161 25.3413 25.9414 25.0416 25.999C24.9802 26.0464 24.9496 26.1831 24.9496 26.4036L24.9635 26.4063ZM17.3212 22.7512L18.7163 26.6575C18.7994 26.8575 18.8132 27.0796 18.7556 27.2884C18.698 27.4972 18.5722 27.6807 18.3982 27.8098L15.4518 30.0001L18.4094 32.1932C18.5784 32.3179 18.7024 32.4942 18.7628 32.6954C18.8232 32.8966 18.8166 33.112 18.7442 33.3092L17.2766 37.3662L21.5065 38.2479C21.7208 38.2763 21.9196 38.3754 22.0712 38.5295C22.2228 38.6837 22.3187 38.8841 22.3435 39.0989L22.7593 42.6982L26.6795 41.2864C26.8758 41.2074 27.0926 41.1949 27.2966 41.2509C27.5007 41.3068 27.6809 41.4281 27.8095 41.5961L30.0165 44.576L32.7341 41.0576C32.87 40.8661 33.0707 40.7304 33.299 40.6755C33.5273 40.6206 33.7677 40.6503 33.9758 40.759L37.271 42.4917L37.6895 38.5548C37.7117 38.3348 37.8085 38.129 37.9638 37.9716C38.1191 37.8143 38.3236 37.7148 38.5433 37.6898L42.7118 37.2518L41.2609 33.3148C41.187 33.1183 41.1791 32.903 41.2385 32.7016C41.2979 32.5002 41.4214 32.3237 41.5902 32.1988L44.5673 29.9889L41.074 27.2908C40.8737 27.1557 40.7306 26.9511 40.6724 26.7167C40.6141 26.4822 40.6449 26.2344 40.7587 26.0213L42.5054 22.7289L38.5545 22.3243C38.3325 22.3011 38.1254 22.2021 37.9678 22.0441C37.8103 21.886 37.712 21.6786 37.6895 21.4566L37.2514 17.302L33.3145 18.7389C33.1179 18.812 32.9029 18.8194 32.7017 18.76C32.5005 18.7007 32.3239 18.5778 32.1984 18.4097L29.944 15.3684L27.7676 17.8991C27.6496 18.0361 27.4956 18.1375 27.3231 18.1917C27.1505 18.2459 26.9663 18.2509 26.7911 18.206L22.7621 17.182L22.3212 21.4454C22.301 21.6691 22.2037 21.8788 22.0459 22.0386C21.8881 22.1985 21.6797 22.2985 21.4562 22.3215L17.3212 22.7512Z" fill="white"/>
</g>
<defs>
<clipPath id="clip0_35_4660">
<rect width="34.2857" height="34.2857" fill="white" transform="translate(12.8569 12.8571)"/>
</clipPath>
</defs>
</svg>
