<svg width="80" height="81" viewBox="0 0 80 81" fill="none" xmlns="http://www.w3.org/2000/svg">
<circle cx="40" cy="40.4148" r="40" fill="#0DA8DB"/>
<g clip-path="url(#clip0_52_2690)">
<path fill-rule="evenodd" clip-rule="evenodd" d="M39.7826 43.5358L41.2474 47.1165L45.1048 47.4013L42.1507 49.9038L43.0703 53.6635L39.7785 51.629L36.4867 53.6635L37.4062 49.9038L34.4521 47.4013L38.3096 47.1165L39.7826 43.5358ZM40.0592 16.8797C40.1895 16.2124 40.5353 15.7851 41.0073 15.5654C41.3898 15.3904 41.8333 15.3701 42.2972 15.4922C42.7 15.5979 43.1232 15.8136 43.5301 16.1228C44.6287 16.957 45.6582 18.5358 45.7884 20.5052C45.8291 21.1115 45.8169 21.7584 45.7599 22.4461C45.7233 22.9018 45.6623 23.3779 45.585 23.8743H50.2562L50.2765 23.8784C51.0374 23.9069 51.7699 24.094 52.3924 24.4196C52.9295 24.7003 53.3812 25.0828 53.6945 25.563C54.016 26.0553 54.195 26.6412 54.1665 27.3086C54.1462 27.805 54.016 28.3421 53.7433 28.9199C53.898 29.5669 53.9712 30.2586 53.8695 30.8689C53.784 31.3857 53.5846 31.8455 53.2225 32.1873C53.2428 33.0418 53.1289 33.7579 52.897 34.3805C52.661 35.0193 52.307 35.5483 51.8512 36.0162C51.8105 36.4272 51.7454 36.8178 51.6437 37.184C51.5135 37.6438 51.3263 38.067 51.0618 38.4373C50.2643 39.5603 49.6296 39.5359 48.6204 39.4952C48.4821 39.4912 48.3275 39.483 48.0955 39.483H38.9525C38.1305 39.483 37.4836 39.365 36.8936 39.068C36.3076 38.775 35.8112 38.3274 35.2782 37.6601L35.1398 37.2736V26.6046L35.6037 26.4785C36.7837 26.1611 37.7114 25.152 38.4316 23.9476C39.1722 22.7065 39.693 21.2539 40.047 20.082V16.9977L40.0592 16.8797ZM26.3263 25.4938H33.1379C33.6546 25.4938 34.0737 25.917 34.0737 26.4297V38.8849C34.0737 39.4017 33.6506 39.8208 33.1379 39.8208H26.3263C25.8096 39.8208 25.3905 39.3976 25.3905 38.8849V26.4297C25.3905 25.9129 25.8096 25.4938 26.3263 25.4938ZM41.5282 16.6966C41.4264 16.7413 41.3451 16.8593 41.2962 17.0628V20.1715L41.2677 20.3505C40.8893 21.6079 40.3278 23.2029 39.4977 24.5905C38.7165 25.8966 37.7033 27.0156 36.389 27.5364V37.0498C36.7511 37.477 37.0848 37.77 37.4469 37.949C37.8498 38.1484 38.3218 38.2298 38.9484 38.2298H48.0915C48.2542 38.2298 48.4658 38.2379 48.6652 38.2461C49.2633 38.2705 49.6418 38.2867 50.0446 37.713C50.2196 37.4648 50.3498 37.1718 50.4434 36.8422C50.541 36.4923 50.598 36.1058 50.6265 35.6907L50.8177 35.2797C51.2205 34.8973 51.5298 34.47 51.7251 33.941C51.9245 33.3999 52.014 32.7448 51.9652 31.9269L51.9448 31.5566L52.2581 31.3613C52.4738 31.227 52.5918 30.9747 52.6406 30.6655C52.722 30.1731 52.6366 29.5709 52.4819 29.0094L52.5308 28.5577C52.783 28.0735 52.9051 27.6381 52.9214 27.2597C52.9377 26.865 52.8359 26.5232 52.6488 26.2384C52.4535 25.9414 52.1646 25.6972 51.8146 25.5141C51.363 25.2781 50.8218 25.1438 50.2521 25.1194H44.0876L44.2259 24.3789C44.3602 23.6627 44.4578 22.9832 44.5107 22.3362C44.5636 21.7015 44.5758 21.1155 44.5392 20.5825C44.4334 19.0078 43.6278 17.7627 42.7692 17.1075C42.4966 16.9 42.224 16.7576 41.9757 16.6925C41.7967 16.6477 41.638 16.6477 41.5282 16.6966ZM33.0524 55.2871L34.5173 58.8678L38.3747 59.1526L35.4206 61.6551L36.3402 65.4148L33.0483 63.3803L29.7565 65.4148L30.6761 61.6551L27.722 59.1526L31.5794 58.8678L33.0524 55.2871ZM46.5086 55.2871L47.9735 58.8678L51.8309 59.1526L48.8768 61.6551L49.7964 65.4148L46.5046 63.3803L43.2127 65.4148L44.1323 61.6551L41.1782 59.1526L45.0356 58.8678L46.5086 55.2871ZM53.2347 43.5358L54.6995 47.1165L58.557 47.4013L55.6029 49.9038L56.5265 53.6635L53.2347 51.629L49.9429 53.6635L50.8625 49.9038L47.9084 47.4013L51.7658 47.1165L53.2347 43.5358ZM26.3263 43.5358L27.7912 47.1165L31.6486 47.4013L28.6945 49.9038L29.6141 53.6635L26.3223 51.629L23.0345 53.6635L23.9541 49.9038L21 47.4013L24.8574 47.1165L26.3263 43.5358Z" fill="white"/>
</g>
<defs>
<clipPath id="clip0_52_2690">
<rect width="37.561" height="50" fill="white" transform="translate(21 15.4148)"/>
</clipPath>
</defs>
</svg>
