<svg width="30" height="36" viewBox="0 0 30 36" fill="none" xmlns="http://www.w3.org/2000/svg">
<path d="M0.757952 34.9001C0.56543 34.8108 0.428711 34.6183 0.428711 34.3895V1.41518C0.428711 1.10826 0.677037 0.857147 0.986747 0.857147H6.39969H28.643C28.9499 0.857147 29.201 1.10547 29.201 1.41518V31.4738C29.201 31.5045 29.1982 31.5324 29.1955 31.5603C29.1173 32.6568 28.7602 33.5106 28.1184 34.1244C27.4767 34.7327 26.5755 35.0731 25.4064 35.1401C25.3813 35.1429 25.359 35.1457 25.3338 35.1457H1.21833C1.0286 35.1429 0.858398 35.0452 0.757952 34.9001ZM13.1017 11.7612C13.7909 13.1953 15.8751 13.2455 16.5336 11.7695C16.3551 11.5882 16.2211 11.3929 16.0872 11.2003C16.0649 11.1696 16.0426 11.1362 16.023 11.1055C15.7049 11.3566 15.3199 11.5184 14.8177 11.5184C14.2764 11.5184 13.8662 11.3092 13.5314 11.0022C13.5119 10.9827 13.4923 10.966 13.4728 10.9464C13.4254 11.0804 13.364 11.2394 13.2998 11.3873C13.2328 11.5296 13.1659 11.6635 13.1017 11.7612ZM16.7261 11.6105C17.46 12.1295 19.2457 12.255 19.9321 12.6373C20.1609 12.7628 20.3645 12.9247 20.5319 13.1451C20.8779 13.5999 21.5811 15.2545 20.4371 15.341H18.2859L18.5509 12.3778C17.9734 12.2662 17.3623 12.1769 16.7234 11.8086C16.3299 13.5413 13.6542 13.7896 12.8841 11.856C12.3121 12.1434 11.754 12.3108 11.0872 12.4113L11.5029 15.3382H9.19266C8.04869 15.2517 8.7546 13.5971 9.0978 13.1423C9.26242 12.9247 9.46889 12.7628 9.69769 12.6345C10.3813 12.2522 12.1586 12.1267 12.898 11.6133C12.951 11.5324 13.0096 11.4124 13.0654 11.284C13.1491 11.0915 13.2273 10.8795 13.2775 10.7344C13.071 10.4916 12.8952 10.2182 12.725 9.94755L12.167 9.05748C11.9633 8.75335 11.8573 8.47433 11.8489 8.24554C11.8461 8.13672 11.8629 8.03907 11.9047 7.95536C11.9466 7.86608 12.0107 7.79074 12.0972 7.73215C12.1363 7.70425 12.1837 7.68192 12.234 7.66239C12.1977 7.17969 12.1837 6.57143 12.2088 6.06362C12.22 5.94364 12.2451 5.82088 12.2786 5.7009C12.4209 5.19029 12.7808 4.78014 13.2245 4.49554C13.47 4.33929 13.7379 4.2221 14.0169 4.14398C14.1927 4.09375 13.9918 3.69476 14.1759 3.67523C15.0632 3.58315 16.3746 4.22768 16.994 4.89733C17.3037 5.23215 17.499 5.67858 17.5409 6.2673L17.5046 7.7182C17.6609 7.76563 17.7585 7.86329 17.8004 8.02233C17.845 8.19811 17.7976 8.44643 17.6469 8.78684C17.6441 8.79242 17.6413 8.798 17.6385 8.80637L17.0024 9.85547C16.768 10.2405 16.5308 10.6284 16.2211 10.9325C16.249 10.9715 16.2769 11.0134 16.3048 11.0553C16.4304 11.2394 16.5587 11.4263 16.7206 11.591C16.7178 11.5993 16.7234 11.6049 16.7261 11.6105ZM12.552 7.92188C12.4293 7.92746 12.3344 7.95257 12.2702 7.99442C12.234 8.01954 12.2061 8.05023 12.1893 8.0865C12.1698 8.12835 12.1614 8.17858 12.1642 8.23717C12.1698 8.40737 12.2591 8.63059 12.4293 8.88728L12.4321 8.89007L12.9901 9.78014C13.2133 10.1373 13.4505 10.5 13.7407 10.7679C14.0225 11.0246 14.3629 11.1975 14.8121 11.2003C15.3004 11.2003 15.6575 11.0218 15.9477 10.7483C16.249 10.4665 16.4862 10.0787 16.7206 9.69364L17.3511 8.6557C17.4683 8.38784 17.5102 8.20927 17.4851 8.10324C17.4683 8.04186 17.4014 8.01117 17.2814 8.00279C17.2563 8.00279 17.2312 8 17.2061 8.00279C17.1782 8.00279 17.1475 8.00558 17.1168 8.00837C17.1 8.01117 17.0833 8.00838 17.0693 8.00559C17.0135 8.00838 16.9549 8.00559 16.8963 7.99721L17.1112 7.04297C15.5096 7.29409 14.3126 6.10547 12.619 6.80581L12.7418 7.93025C12.6776 7.93304 12.6134 7.93025 12.552 7.92188ZM20.0911 31.0413C19.787 31.0413 19.5386 30.793 19.5386 30.4833C19.5386 30.1763 19.7842 29.9252 20.0911 29.9252H24.7451C25.0492 29.9252 25.2976 30.1736 25.2976 30.4833C25.2976 30.7902 25.052 31.0413 24.7451 31.0413H20.0911ZM5.12179 26.9788C4.81766 26.9788 4.56934 26.7305 4.56934 26.4208C4.56934 26.1138 4.81487 25.8627 5.12179 25.8627H24.7926C25.0967 25.8627 25.345 26.1111 25.345 26.4208C25.345 26.7277 25.0995 26.9788 24.7926 26.9788H5.12179ZM5.21108 22.9163C4.90695 22.9163 4.65862 22.668 4.65862 22.3583C4.65862 22.0513 4.90416 21.8002 5.21108 21.8002H24.7423C25.0465 21.8002 25.2948 22.0486 25.2948 22.3583C25.2948 22.6652 25.0492 22.9163 24.7423 22.9163H5.21108ZM5.12179 18.8538C4.81766 18.8538 4.56934 18.6055 4.56934 18.2958C4.56934 17.9888 4.81487 17.7377 5.12179 17.7377H13.5286C13.8327 17.7377 14.0811 17.9861 14.0811 18.2958C14.0811 18.6027 13.8355 18.8538 13.5286 18.8538H5.12179ZM15.6742 18.8538C15.3701 18.8538 15.1218 18.6055 15.1218 18.2958C15.1218 17.9888 15.3673 17.7377 15.6742 17.7377H24.7423C25.0465 17.7377 25.2948 17.9861 25.2948 18.2958C25.2948 18.6027 25.0492 18.8538 24.7423 18.8538H15.6742ZM28.0878 31.4598V1.97043H6.39969H1.54199V34.0296H25.3311H25.3422C26.2379 33.9794 26.9075 33.7394 27.3511 33.3181C27.7892 32.9023 28.0319 32.2801 28.0878 31.4598Z" fill="#0DA8DB"/>
</svg>
