<svg width="80" height="81" viewBox="0 0 80 81" fill="none" xmlns="http://www.w3.org/2000/svg">
<circle cx="40" cy="40.4148" r="40" fill="#0DA8DB"/>
<g clip-path="url(#clip0_52_2707)">
<path d="M40 15.4148C46.907 15.4148 53.1468 18.2148 57.6801 22.7347C62.2 27.2546 65.0004 33.5082 65.0004 40.4148C65.0004 47.3218 62.2 53.5612 57.6801 58.0949C53.1606 62.6148 46.907 65.4148 40 65.4148C33.0934 65.4148 26.8536 62.6148 22.3203 58.0949C17.8 53.575 15 47.3214 15 40.4148C15 33.5082 17.8 27.268 22.3203 22.7347C26.8398 18.2148 33.0934 15.4148 40 15.4148ZM40 29.2015C41.2131 29.2015 42.3736 29.3882 43.4667 29.7482L52.2799 21.0282C48.7335 18.7749 44.5199 17.4679 40 17.4679C35.7201 17.4679 31.7201 18.6415 28.2937 20.6812L37.1069 29.5879C38.027 29.3345 39.0001 29.2145 40.0138 29.2145L40 29.2015ZM45.3734 30.5748C46.32 31.0947 47.1734 31.735 47.9203 32.4815C48.7599 33.3215 49.4804 34.308 50.0137 35.388L58.5604 26.9348C57.8542 25.9614 57.0671 25.0416 56.2136 24.1881C55.4802 23.4547 54.7069 22.7745 53.8807 22.1481L45.3603 30.5748H45.3734ZM50.787 37.3614C51.0669 38.3349 51.2137 39.3616 51.2137 40.4148C51.2137 41.6421 51.014 42.8283 50.6405 43.9486L59.3472 52.7488C61.6134 49.1885 62.9335 44.9615 62.9335 40.4152C62.9335 36.082 61.7334 32.0421 59.6535 28.5884L50.787 37.3614ZM49.8135 45.8284C49.3071 46.7486 48.6672 47.5882 47.9203 48.3351C47.0668 49.1886 46.0669 49.9082 44.9605 50.4549L53.4271 59.0017C54.414 58.2816 55.3476 57.4953 56.214 56.6284C56.9345 55.9084 57.6008 55.1481 58.2273 54.3353L49.8135 45.8284ZM43.0001 51.2152C42.0405 51.4812 41.0402 51.6147 40 51.6147C38.7068 51.6147 37.4803 51.4019 36.3201 51.0012L27.5468 59.6814C31.1335 62.0014 35.4004 63.3483 39.987 63.3483C44.2937 63.3483 48.3336 62.1612 51.7739 60.0947L42.9871 51.2152H43.0001ZM34.4668 50.1616C33.5869 49.6682 32.7867 49.0547 32.0801 48.3485C31.1868 47.4548 30.4403 46.4146 29.8936 45.2683L21.32 53.7479C22.0534 54.7881 22.88 55.7477 23.7733 56.6549C24.4531 57.3342 25.187 57.9879 25.9599 58.5745L34.4533 50.175L34.4668 50.1616ZM29.1736 43.2685C28.9335 42.3617 28.8135 41.4013 28.8135 40.4282C28.8135 39.1619 29.0267 37.9484 29.4136 36.8016L20.7204 28.0149C18.4138 31.5882 17.0804 35.8416 17.0804 40.4148C17.0804 44.6682 18.2405 48.6679 20.2668 52.0813L29.1736 43.255V43.2685ZM30.2536 34.9349C30.7605 34.0415 31.3735 33.2284 32.0935 32.5083C32.9734 31.6284 34.0006 30.895 35.1335 30.3482L26.6669 21.7881C25.6536 22.5215 24.6935 23.3347 23.8002 24.2146C23.1066 24.9082 22.4533 25.6546 21.8403 26.4414L30.254 34.9483L30.2536 34.9349ZM46.5734 33.8682C44.8933 32.1882 42.5734 31.148 40.0134 31.148C37.4535 31.148 35.1335 32.1882 33.4534 33.8682C31.7734 35.5483 30.7332 37.8683 30.7332 40.4278C30.7332 42.9878 31.7734 45.3077 33.4534 46.9882C35.1335 48.6679 37.4535 49.708 40.0134 49.708C42.5734 49.708 44.8933 48.6679 46.5734 46.9882C48.2535 45.3077 49.2936 42.9878 49.2936 40.4278C49.2936 37.8683 48.2535 35.5483 46.5734 33.8682Z" fill="white"/>
</g>
<defs>
<clipPath id="clip0_52_2707">
<rect width="50.0004" height="50" fill="white" transform="translate(15 15.4148)"/>
</clipPath>
</defs>
</svg>
