<svg width="80" height="81" viewBox="0 0 80 81" fill="none" xmlns="http://www.w3.org/2000/svg">
<circle cx="40" cy="40.4148" r="40" fill="#FF9D2A"/>
<path d="M33.75 51.3523V53.4502C33.7501 54.2713 33.5884 55.0843 33.2742 55.8428C32.96 56.6014 32.4994 57.2906 31.9188 57.871L30.625 59.1648H49.375L48.0812 57.871C47.5006 57.2906 47.04 56.6014 46.7258 55.8428C46.4116 55.0843 46.2499 54.2713 46.25 53.4502V51.3523M58.75 26.3523V46.6648C58.75 47.908 58.2561 49.1003 57.3771 49.9794C56.498 50.8584 55.3057 51.3523 54.0625 51.3523H25.9375C24.6943 51.3523 23.502 50.8584 22.6229 49.9794C21.7439 49.1003 21.25 47.908 21.25 46.6648V26.3523M58.75 26.3523C58.75 25.1091 58.2561 23.9168 57.3771 23.0377C56.498 22.1587 55.3057 21.6648 54.0625 21.6648H25.9375C24.6943 21.6648 23.502 22.1587 22.6229 23.0377C21.7439 23.9168 21.25 25.1091 21.25 26.3523M58.75 26.3523V40.4148C58.75 41.658 58.2561 42.8503 57.3771 43.7294C56.498 44.6084 55.3057 45.1023 54.0625 45.1023H25.9375C24.6943 45.1023 23.502 44.6084 22.6229 43.7294C21.7439 42.8503 21.25 41.658 21.25 40.4148V26.3523" stroke="white" stroke-width="1.5" stroke-linecap="round" stroke-linejoin="round"/>
</svg>
