<svg width="549" height="675" viewBox="0 0 549 675" fill="none" xmlns="http://www.w3.org/2000/svg">
<path d="M396.946 594.956C396.946 594.956 528.222 605.586 545.416 635.201C562.61 664.808 512.265 668.962 467.505 672.996C422.753 677.029 353.093 672.192 311.868 666.777C270.643 661.362 116.782 647.542 82.9405 646.538C49.1072 645.542 -6.50779 660.373 0.626862 618.192C7.76152 576.019 105.895 572.275 162.153 571.222C218.411 570.17 396.946 594.956 396.946 594.956Z" fill="#0DA8DB"/>
<path d="M82.4429 96.8722L81.1172 90.5089C81.1172 90.5089 85.5924 84.6839 94.9607 83.1895C104.329 81.695 155.79 85.1017 158.723 92.638C161.647 100.174 142.846 108.763 133.374 108.996C123.901 109.229 88.0751 101.765 82.4429 96.8722Z" fill="#2E2E47"/>
<path d="M167.648 443.803C167.648 443.803 174.502 488.796 177.619 503.612C182.135 525.096 199.264 588.537 199.264 588.537L223.85 586.657C223.85 586.657 223.424 512.715 221.44 437.745C203.932 440.501 185.517 442.445 167.648 443.803Z" fill="#946255"/>
<path d="M75.7983 587.492C89.1276 590.658 101.187 588.095 101.187 588.095C101.187 588.095 117.24 523.545 121.242 501.683C123.901 487.157 129.172 443.023 129.172 443.023C101.629 442.815 94.3982 443.056 79.7834 445.241C74.0227 518.138 75.7983 587.492 75.7983 587.492Z" fill="#946255"/>
<path d="M217.254 285.491C216.273 276.259 106.634 277.577 82.3781 279.641C78.0395 315.299 79.558 369.966 73.2188 450.23C85.5758 452.311 117.979 455.292 149.225 445.739L156.4 369.893L163.101 444.614C183.139 447.7 219.527 440.806 235.371 435.391C232.206 374.762 220.026 311.611 217.254 285.491Z" fill="#FFC0DD"/>
<path d="M156.409 370.383C156.417 370.383 156.417 370.383 156.425 370.383C156.698 370.375 156.907 370.15 156.899 369.877C156.899 369.813 156.69 363.273 157.277 356.202C158.048 346.955 159.799 341.017 162.354 339.025C167.842 334.742 188.852 334.501 194.026 337.064C194.557 337.329 194.87 337.611 194.87 337.836C194.87 337.9 194.854 337.98 194.75 338.085C193.753 339.025 188.796 338.792 183.999 338.567C176.921 338.237 168.894 337.86 165.191 340.166C164.958 340.31 164.893 340.616 165.03 340.84C165.174 341.073 165.472 341.138 165.705 341.001C169.152 338.848 177.355 339.234 183.943 339.547C190.25 339.844 194.179 339.965 195.408 338.8C195.682 338.535 195.834 338.213 195.834 337.852C195.842 337.209 195.368 336.646 194.444 336.188C188.965 333.481 167.569 333.706 161.728 338.261C155.099 343.436 155.862 368.841 155.895 369.917C155.927 370.175 156.144 370.383 156.409 370.383Z" fill="#2E2E47"/>
<path d="M145.136 309.707C116.124 312.334 93.9402 312.037 79.9521 311.265C80.4824 300.282 81.1493 290.488 82.1295 281.787L212.867 292.015C212.867 292.007 197.385 304.974 145.136 309.707Z" fill="#2E2E47"/>
<path d="M80.9479 354.716C81.0282 354.716 81.1086 354.7 81.1809 354.66C99.3228 344.93 99.5317 324.812 99.5317 324.603C99.5317 324.329 99.3148 324.113 99.0416 324.113C98.7684 324.113 98.5515 324.329 98.5515 324.603C98.5515 324.795 98.3346 344.352 80.7149 353.792C80.4738 353.921 80.3855 354.218 80.514 354.459C80.6024 354.628 80.7711 354.716 80.9479 354.716Z" fill="#2E2E47"/>
<path d="M254.245 195.038C254.462 183.115 219.504 115.665 166.645 108.088C113.786 100.52 183.509 211.035 204.985 218.499C226.462 225.963 253.988 208.841 254.245 195.038Z" fill="#0DA8DB"/>
<path d="M134.185 136.611C129.404 118.099 116.589 106.176 86.0501 109.936C64.7746 112.548 55.0288 120.912 50.2964 130.561C36.1476 159.421 26.9481 223.954 31.8251 249.006C36.8386 274.765 109.189 270.812 122.567 259.121C133.333 249.697 144.582 176.872 134.185 136.611Z" fill="#9E4F60"/>
<path d="M79.2286 292.441C57.2702 265.967 91.6901 160.393 89.8502 142.565C88.0264 124.905 111.447 95.0966 145.047 101.38C162.081 104.561 182.263 111.511 190.691 134.643C200.976 162.844 207.998 175.442 212.529 196.026C219.479 227.634 238.979 262.174 224.3 283.578C221.335 287.901 210.352 300.146 152.471 300.419C122.711 300.563 85.5035 300.001 79.2286 292.441Z" fill="#0DA8DB"/>
<path d="M88.5732 119.345C88.5732 119.345 107.88 120.437 108.844 136.507C110.122 157.798 107.824 189.133 95.5793 200.092C83.3347 211.059 71.54 210.03 71.54 210.03V233.668C71.54 233.668 94.35 227.12 107.438 213.59C120.527 200.06 129.019 160.056 125.886 141.11C122.752 122.173 119.892 109.278 110.001 105.726C100.111 102.175 88.5732 119.345 88.5732 119.345Z" fill="#9E4F60"/>
<path d="M119.827 72.4473C119.827 72.4473 123.009 88.5646 122.928 94.8315C122.848 101.098 122.149 105.895 125.556 107.148C128.97 108.402 140.677 111.182 145.321 107.783C149.965 104.385 143.151 103.798 140.709 91.3124C140.042 87.8816 139.255 77.8305 136.571 75.388C133.888 72.9294 120.092 66.2366 119.827 72.4473Z" fill="#946255"/>
<path d="M139.68 84.5473C140.13 87.2629 140.436 89.8661 140.717 91.3043C140.837 91.939 140.982 92.5336 141.127 93.1121C139.391 93.4334 136.708 93.554 133.373 92.4693C127.355 90.5169 123.539 81.3415 123.539 81.3415L139.68 84.5473Z" fill="#2E2E47"/>
<path d="M95.7556 35.0144C95.7556 35.0144 93.9559 60.4999 101.693 66.7026C109.43 72.9052 112.958 71.1939 117.65 67.8917C122.334 64.5895 120.888 35.0466 111.969 35.8581C103.043 36.6696 97.6839 32.7487 95.7556 35.0144Z" fill="#2E2E47"/>
<path d="M144.533 23.3724C147.241 24.7865 149.226 27.2692 150.061 30.2098C151.395 34.8939 153.669 42.9285 155.067 48.0384C156.344 52.7386 160.104 54.7312 162.185 61.673C164.266 68.6148 165.375 79.6302 153.042 84.9972C135.527 92.6139 120.663 82.1932 115.376 75.2995C110.547 69.0085 109.864 67.0401 109.864 67.0401C109.864 67.0401 107.639 70.6315 103.887 66.2125C100.135 61.7935 95.7478 54.4419 100.102 52.2405C104.457 50.047 105.992 53.8152 106.956 53.1323C107.92 52.4494 106.779 44.8326 106.988 38.4693C107.165 32.7969 127.789 14.6228 144.533 23.3724Z" fill="#946255"/>
<path d="M125.669 49.5248C125.733 49.5248 125.797 49.5087 125.861 49.4846C125.91 49.4686 130.57 47.5242 133.743 47.243C134.016 47.2189 134.209 46.9779 134.185 46.7127C134.161 46.4396 133.928 46.2467 133.655 46.2708C130.329 46.5681 125.677 48.5044 125.476 48.5848C125.227 48.6892 125.106 48.9785 125.211 49.2275C125.299 49.4123 125.484 49.5248 125.669 49.5248Z" fill="#2E2E47"/>
<path d="M155.46 62.3318C155.46 62.3318 149.016 65.9233 138.314 67.482C138.314 67.482 140.813 73.1383 149.386 71.4189C156.569 69.9727 155.765 63.8986 155.46 62.3318Z" fill="white"/>
<path d="M128.288 63.9629C128.682 65.7064 131.686 66.5179 134.997 65.7707C138.307 65.0234 140.677 63.0068 140.283 61.2633C139.89 59.5198 136.885 58.7083 133.575 59.4555C130.264 60.1947 127.894 62.2114 128.288 63.9629Z" fill="#774237"/>
<path d="M152.222 57.5674C152.616 59.3109 154.769 60.3152 157.035 59.801C159.301 59.2868 160.819 57.4629 160.426 55.7194C160.032 53.9759 157.879 52.9716 155.613 53.4858C153.347 53.992 151.829 55.8239 152.222 57.5674Z" fill="#774237"/>
<path d="M113.062 38.7505C113.062 38.7505 115.199 57.0451 113.239 58.4993C111.278 59.9536 109.615 59.5679 107.727 57.5754C105.839 55.5828 102.545 44.2059 103.975 43.2257C105.405 42.2375 113.062 38.7505 113.062 38.7505Z" fill="#2E2E47"/>
<path d="M72.0696 253.947C89.0867 253.481 136.924 251.36 136.924 251.36C136.924 251.36 125.218 263.436 104.698 269.904C92.5095 273.744 80.4496 274.604 72.6642 274.532C71.8447 268.433 71.7081 261.451 72.0696 253.947Z" fill="#2E2E47"/>
<path d="M145.393 63.1031C145.425 63.1031 145.458 63.1031 145.49 63.0951C149.129 62.3479 150.029 60.3955 150.238 59.3028C150.576 57.5754 149.676 55.7114 147.948 54.5544C142.838 51.1397 142.67 47.6768 143.377 46.1664C144.349 44.0854 149.587 42.824 151.516 42.5187C151.781 42.4785 151.966 42.2214 151.925 41.9563C151.885 41.6911 151.636 41.5063 151.363 41.5465C151.058 41.5947 143.883 42.7758 142.485 45.7486C141.641 47.5403 141.73 51.5816 147.394 55.3659C148.792 56.2979 149.531 57.7682 149.266 59.11C148.977 60.5803 147.563 61.6569 145.281 62.1229C145.016 62.1792 144.847 62.4363 144.903 62.7014C144.967 62.9424 145.168 63.1031 145.393 63.1031Z" fill="#2E2E47"/>
<path d="M127.822 56.5068C127.967 56.5068 128.111 56.4425 128.208 56.322C131.622 52.0878 134.708 53.6385 134.836 53.7028C135.077 53.8313 135.374 53.7349 135.495 53.5019C135.623 53.2609 135.535 52.9716 135.294 52.8431C135.254 52.819 134.274 52.3048 132.803 52.4172C131.478 52.5217 129.477 53.1805 127.436 55.7114C127.268 55.9203 127.3 56.2336 127.509 56.4024C127.605 56.4666 127.717 56.5068 127.822 56.5068Z" fill="#2E2E47"/>
<path d="M131.839 52.7949C132.434 52.5619 133.454 52.1762 134.394 53.3573C135.334 54.5384 135.527 56.531 134.748 57.7683C133.968 59.0056 131.759 58.8288 131.156 57.8245C130.554 56.8202 130.007 54.3616 130.321 53.8153C130.642 53.2689 131.421 52.9556 131.839 52.7949Z" fill="#2E2E47"/>
<path d="M229.169 257.097C205.804 261.861 186.907 254.566 186.907 254.566L224.115 235.05C226.413 242.699 228.325 250.123 229.169 257.097Z" fill="#2E2E47"/>
<path d="M147.707 50.4407C147.876 50.4407 148.045 50.3523 148.141 50.1836C148.214 50.0631 149.893 47.1626 153.781 48.3919C154.039 48.4723 154.32 48.3276 154.4 48.0705C154.48 47.8134 154.336 47.5322 154.079 47.4519C149.411 45.9735 147.298 49.6614 147.282 49.7015C147.153 49.9426 147.233 50.2399 147.474 50.3684C147.547 50.4247 147.627 50.4407 147.707 50.4407Z" fill="#2E2E47"/>
<path d="M149.692 48.3036C149.981 47.701 151.516 46.777 152.448 47.7412C153.38 48.7133 153.75 50.8585 153.324 52.0155C152.898 53.1805 151.235 52.819 150.6 51.9834C149.957 51.1558 149.258 49.2115 149.692 48.3036Z" fill="#2E2E47"/>
<path d="M110.315 45.5718C110.315 45.5718 123.395 45.9655 130.232 43.1856C137.07 40.4056 139.046 38.8791 139.046 38.8791C139.046 38.8791 146.229 39.4656 151.162 37.1999C156.103 34.9341 154.842 28.1048 154.842 28.1048C154.842 28.1048 162.025 21.5486 158.16 14.189C154.304 6.82936 145.771 8.17113 145.771 8.17113C145.771 8.17113 143.714 0.184813 133.518 1.93561e-05C123.331 -0.17674 118.751 7.99437 118.751 7.99437C118.751 7.99437 109.053 3.77624 102.505 9.43255C95.949 15.0889 96.2222 19.307 96.2222 19.307C96.2222 19.307 89.3125 21.8218 87.336 29.8081C85.3595 37.7944 92.8155 43.9569 96.2222 45.5879C99.6288 47.2269 110.315 45.5718 110.315 45.5718Z" fill="#2E2E47"/>
<path d="M192.234 116.653L192.588 116.605C195.151 116.235 205.829 122.406 205.796 125.025L200.799 125.748L199.939 223.207L121.137 228.751L122.053 126.544L192.234 116.653Z" fill="#FA634B"/>
<path d="M123.619 230.398L135.438 235.669L202.422 224.854L203.82 125.298L192.764 118.573L124.535 128.191L123.619 230.398Z" fill="white"/>
<path d="M134.715 237.123L204.88 227.232L205.804 125.025L135.631 134.916L134.715 237.123Z" fill="#FA634B"/>
<path d="M211.284 142.468L211.638 142.42C214.201 142.05 216.257 143.874 216.217 146.501L211.22 147.225L210.36 244.683L140.187 254.574L141.102 152.367L211.284 142.468Z" fill="#2E2E47"/>
<path d="M142.669 256.213L212.842 246.322L213.758 144.115L143.585 154.006L142.669 256.213Z" fill="white"/>
<path d="M145.136 258.591L215.309 248.701L216.225 146.493L146.052 156.392L145.136 258.591Z" fill="#2E2E47"/>
<path d="M165.833 204.961C168.653 202.92 180.367 200.156 181.773 202.952C183.179 205.748 172.871 204.84 173.458 206.632C174.044 208.424 194.444 205.925 193.873 208.97C193.399 211.509 183.075 210.834 183.557 212.184C184.039 213.534 195.215 209.838 195.866 211.581C196.517 213.333 185.043 216.836 185.14 217.286C185.236 217.728 195.826 215.365 196.067 216.611C196.308 217.856 184.955 220.258 184.899 221.182C184.842 222.106 193.247 219.35 192.949 221.19C192.652 223.03 177.33 225.2 175.201 225.722C171.023 226.758 159.437 227.747 156.031 223.625C149.924 216.273 164.162 206.174 165.833 204.961Z" fill="#946255"/>
<path d="M169.183 232.125C165.705 232.286 154.826 237.444 155.477 240.505C156.127 243.566 163.608 236.424 164.274 238.191C164.933 239.959 147.434 250.733 149.78 252.758C151.732 254.445 159.381 247.479 159.839 248.829C160.297 250.187 149.266 254.268 149.852 256.036C150.439 257.812 161.591 253.385 161.792 253.802C161.993 254.212 152.239 258.969 152.833 260.093C153.428 261.218 163.792 256.012 164.419 256.695C165.038 257.386 156.746 260.471 158.136 261.724C159.518 262.978 172.847 255.112 174.832 254.196C178.745 252.396 188.41 245.945 188.506 240.594C188.667 231.033 171.24 232.029 169.183 232.125Z" fill="#946255"/>
<path d="M96.5112 121.715C104.787 158.842 93.3858 207.492 93.3858 207.492C93.3858 207.492 152.19 207.299 160.45 208.303C168.709 209.307 171.369 226.871 163.326 235.195C144.574 254.598 55.037 291.155 47.7577 237.412C37.6664 162.94 96.5112 121.715 96.5112 121.715Z" fill="#0DA8DB"/>
<path d="M229.643 176.133C192.507 192.796 180.102 209.653 174.1 219.664C168.098 229.675 177.587 256.213 185.919 256.221C211.292 256.229 243.848 239.236 252.83 219.76C262.391 199.015 248.082 167.857 229.643 176.133Z" fill="#0DA8DB"/>
<path d="M251.079 615.26C255.972 614.818 259.981 612.817 262.207 611.451C261.982 610.399 263.436 606.976 261.114 604.156C258.575 601.071 255.08 602.878 248.018 601.882C240.956 600.886 236.352 599.785 231.571 592.916C226.678 585.893 228.824 572.066 225.722 570.877C222.621 569.688 214.843 572.677 206.166 572.709C197.489 572.741 195.215 571.833 195.215 571.833C191.326 575.995 195.633 580.02 196.131 584.752C196.629 589.485 195.207 590.087 193.753 596.322C192.299 602.557 193.448 606.614 193.448 606.614C193.448 606.614 201.844 609.917 212.996 612.214C224.163 614.512 243.478 615.951 251.079 615.26Z" fill="#FFC97D"/>
<path d="M262.328 611.676C262.272 611.62 262.24 611.54 262.215 611.443C259.982 612.809 255.981 614.81 251.088 615.251C243.487 615.942 224.172 614.512 213.012 612.214C201.86 609.917 193.464 606.614 193.464 606.614C193.464 606.614 192.564 606.976 192.347 608.326C192.13 609.676 190.66 615.404 191.825 616.585C192.99 617.758 206.528 619.204 209.292 619.566C212.048 619.928 211.389 616.706 212.345 615.838C213.301 614.978 220.09 616.529 222.967 617.116C225.843 617.702 224.156 618.08 224.461 619.253C224.767 620.434 226.317 619.976 231.789 620.49C237.252 620.996 256.382 619.132 259.13 618.923C261.878 618.706 263.421 617.027 263.638 614.954C263.846 612.881 262.971 612.311 262.328 611.676Z" fill="#CC8B70"/>
<path d="M219.368 580.799C219.81 579.819 218.749 573.882 218.259 571.303C214.804 571.913 210.602 572.701 206.175 572.709C202.367 572.725 199.796 572.556 198.108 572.363C198.992 575.706 200.639 581.057 202.343 582.141C204.857 583.748 218.805 582.053 219.368 580.799Z" fill="#2E2E47"/>
<path d="M85.8413 612.48C80.3135 612.584 67.4904 609.828 63.7383 610.166C61.7538 610.342 59.2229 610.334 57.2705 610.286C57.6963 608.43 58.3712 606.518 59.255 604.975C61.4485 601.119 69.266 594.715 70.4471 592.321C75.4526 582.173 72.2388 567.526 74.8822 565.558C76.9712 564.007 80.418 567.438 86.0502 568.402C91.6824 569.366 99.1866 569.631 103.983 569.423C108.78 569.214 105.454 575.489 105.454 575.489C103.043 582.27 101.059 584.744 99.7089 595.591C99.3875 598.186 99.9579 603.24 100.223 607.876C99.7088 607.956 98.9777 608.294 97.9332 609.145C95.0167 611.54 91.369 612.375 85.8413 612.48Z" fill="#FFC97D"/>
<path d="M63.7302 610.166C67.4824 609.828 80.3135 612.584 85.8332 612.479C91.361 612.375 95.0086 611.539 97.9252 609.145C98.9616 608.293 99.6928 607.956 100.215 607.876C100.456 612.158 100.432 616.087 99.1786 617.389C96.5754 620.096 58.2025 618.771 57.158 616.866C56.5313 615.725 56.6197 613.066 57.2625 610.286C59.2148 610.326 61.7538 610.334 63.7302 610.166Z" fill="#CC8B70"/>
<path d="M96.7846 566.699C93.3459 566.594 80.9888 563.573 79.8639 565.711C78.7391 567.848 79.5265 576.71 79.8639 577.232C80.2014 577.754 91.988 580.462 93.7556 579.112C95.5393 577.754 100.231 566.803 96.7846 566.699Z" fill="#FFC97D"/>
<path d="M96.5832 577.2C96.7921 577.2 96.993 577.063 97.0572 576.846C97.1135 576.662 98.3829 572.347 98.5115 569.471C98.5195 569.198 98.3106 568.973 98.0455 568.957C97.7964 568.94 97.5473 569.157 97.5313 569.422C97.4108 572.178 96.1252 576.525 96.1172 576.565C96.0368 576.822 96.1895 577.095 96.4466 577.176C96.4868 577.2 96.535 577.2 96.5832 577.2Z" fill="#2E2E47"/>
<path d="M103.204 569.447C103.469 569.439 103.735 569.431 103.984 569.423C108.78 569.214 105.454 575.489 105.454 575.489C104.281 578.791 103.204 581.081 102.256 583.804C100.714 583.555 99.2995 583.162 99.4281 582.559C99.6771 581.426 101.919 572.138 103.204 569.447Z" fill="#2E2E47"/>
<path d="M77.8791 578.558C78.0479 578.558 78.2086 578.469 78.2969 578.317C80.0163 575.456 80.1449 566.635 80.1529 566.265C80.1529 565.992 79.936 565.775 79.6708 565.767H79.6628C79.3977 565.767 79.1727 565.984 79.1727 566.249C79.1727 566.337 79.0441 575.175 77.4613 577.811C77.3248 578.044 77.3971 578.341 77.6301 578.486C77.7104 578.534 77.7908 578.558 77.8791 578.558Z" fill="#2E2E47"/>
<path d="M86.0497 604.622C86.2747 604.622 86.4836 604.469 86.5237 604.236C86.5398 604.156 86.6683 603.409 86.0175 602.485C84.9409 600.942 82.4502 599.865 78.6097 599.271C70.9689 598.098 64.9269 597.423 62.4202 600.259C62.2434 600.46 62.2595 600.773 62.4603 600.95C62.6612 601.127 62.9745 601.111 63.1513 600.91C65.3287 598.451 71.3706 599.15 78.4571 600.243C85.8649 601.384 85.5596 604.027 85.5596 604.051C85.5194 604.317 85.6962 604.566 85.9613 604.614C85.9934 604.614 86.0256 604.622 86.0497 604.622Z" fill="#2E2E47"/>
<path d="M136.925 102.344C136.925 102.344 111.311 101.436 99.5402 98.2863C87.7697 95.1368 84.7969 86.9014 81.1171 90.0751C75.3563 95.0484 78.297 108.153 83.3587 116.934C88.4124 125.724 119.876 119.835 128.714 121.016C137.552 122.197 146.711 119.819 152.592 116.589C158.473 113.359 161.302 105.003 161.792 98.8648C162.282 92.7265 157.943 89.1511 154.697 89.6412C153.428 89.834 151.716 93.5861 148.551 95.9242C143.594 99.5799 136.925 102.344 136.925 102.344Z" fill="#0DA8DB"/>
<path d="M77.646 237.484C78.5217 237.484 79.6305 235.653 84.0816 227.056C87.1106 221.206 90.5414 214.578 92.3491 212.939C92.55 212.754 92.5661 212.449 92.3813 212.248C92.1965 212.047 91.8912 212.031 91.6903 212.216C89.746 213.967 86.4277 220.395 83.2059 226.606C81.2856 230.318 78.9476 234.825 77.9031 236.159C78.0638 232.672 82.7399 221.415 85.2868 215.743C85.3752 215.55 85.327 215.325 85.1743 215.181C85.0217 215.036 84.7887 215.012 84.6039 215.116C84.5637 215.14 80.7393 217.294 74.8098 221.865C72.5601 223.601 69.9248 226.823 67.6028 229.675C65.6906 232.013 62.8223 235.548 62.0992 235.371C62.0992 235.371 61.7617 235.09 62.0429 232.921C63.2401 223.826 93.3133 208.102 93.6186 207.941C93.8596 207.813 93.956 207.524 93.8275 207.283C93.6989 207.042 93.4097 206.945 93.1687 207.074C91.9072 207.725 62.3322 223.199 61.0708 232.792C60.7895 234.913 60.9824 235.958 61.7135 236.271C62.9669 236.809 64.855 234.592 68.3661 230.293C70.6559 227.489 73.2511 224.308 75.4124 222.645C79.2448 219.688 82.1855 217.76 83.7683 216.771C81.9123 221.014 76.6818 233.322 76.9389 236.633C76.9871 237.251 77.2844 237.436 77.5174 237.484C77.5496 237.476 77.5978 237.484 77.646 237.484Z" fill="#2E2E47"/>
<path d="M165.696 347.959C165.704 347.959 165.712 347.959 165.728 347.959C166.002 347.943 166.202 347.71 166.186 347.437C166.074 345.589 166.002 344.496 166.002 344.496C165.986 344.223 165.745 344.014 165.479 344.038C165.206 344.054 165.005 344.287 165.021 344.561C165.021 344.561 165.094 345.653 165.206 347.501C165.222 347.758 165.439 347.959 165.696 347.959Z" fill="#2E2E47"/>
<path d="M173.056 434.017C172.839 432.305 172.574 430.289 172.245 427.862C172.204 427.597 172.397 427.348 172.662 427.308C172.935 427.276 173.176 427.461 173.217 427.726C173.546 430.16 173.811 432.177 174.028 433.888C174.06 434.153 173.867 434.402 173.602 434.435C173.578 434.435 173.562 434.435 173.538 434.435C173.297 434.451 173.088 434.266 173.056 434.017ZM171.385 421.716L170.517 415.57C170.477 415.304 170.67 415.055 170.935 415.015C171.208 414.975 171.449 415.168 171.489 415.433L172.357 421.579C172.397 421.845 172.204 422.094 171.939 422.134C171.915 422.134 171.891 422.142 171.867 422.142C171.634 422.142 171.425 421.965 171.385 421.716ZM169.665 409.415C169.376 407.318 169.095 405.253 168.83 403.261C168.798 402.996 168.982 402.746 169.256 402.706C169.537 402.666 169.77 402.859 169.81 403.132C170.075 405.125 170.356 407.19 170.646 409.287C170.686 409.552 170.493 409.801 170.228 409.841C170.204 409.841 170.18 409.849 170.164 409.849C169.906 409.841 169.698 409.664 169.665 409.415ZM168.05 397.09C167.761 394.632 167.544 392.607 167.392 390.896C167.368 390.622 167.568 390.389 167.842 390.365C168.107 390.341 168.348 390.542 168.372 390.815C168.516 392.519 168.733 394.535 169.023 396.978C169.055 397.251 168.862 397.492 168.597 397.524C168.581 397.524 168.557 397.524 168.541 397.524C168.292 397.524 168.083 397.339 168.05 397.09ZM167.118 384.661C167.078 382.973 166.998 380.893 166.902 378.466C166.894 378.193 167.102 377.968 167.368 377.952C167.376 377.952 167.384 377.952 167.392 377.952C167.657 377.952 167.874 378.161 167.882 378.426C167.986 380.852 168.059 382.949 168.107 384.637C168.115 384.91 167.898 385.135 167.625 385.143C167.617 385.143 167.617 385.143 167.609 385.143C167.343 385.143 167.127 384.934 167.118 384.661ZM166.612 372.271C166.508 370.239 166.403 368.15 166.291 366.077C166.275 365.804 166.484 365.579 166.757 365.563C167.022 365.555 167.255 365.756 167.271 366.029C167.384 368.102 167.488 370.191 167.593 372.231C167.609 372.505 167.4 372.729 167.127 372.746C167.118 372.746 167.11 372.746 167.102 372.746C166.837 372.737 166.62 372.529 166.612 372.271ZM165.945 359.882C165.817 357.681 165.696 355.584 165.584 353.688C165.568 353.414 165.777 353.181 166.042 353.165C166.315 353.141 166.548 353.358 166.564 353.623C166.677 355.52 166.797 357.617 166.926 359.818C166.942 360.091 166.733 360.324 166.46 360.34C166.452 360.34 166.444 360.34 166.428 360.34C166.178 360.34 165.961 360.139 165.945 359.882Z" fill="#2E2E47"/>
<path d="M174.229 443.449C174.422 443.449 174.598 443.337 174.679 443.152C174.791 442.871 174.888 442.284 174.703 439.995C174.679 439.721 174.438 439.529 174.173 439.545C173.899 439.569 173.699 439.802 173.723 440.075C173.899 442.244 173.803 442.694 173.771 442.783C173.674 443.032 173.795 443.321 174.044 443.417C174.108 443.441 174.165 443.449 174.229 443.449Z" fill="#2E2E47"/>
<path d="M81.2935 443.007C81.0204 442.983 80.8275 442.742 80.8516 442.469C81.0043 440.87 81.1971 438.862 81.4221 436.588C81.4462 436.323 81.6872 436.114 81.9604 436.146C82.2336 436.17 82.4264 436.411 82.4023 436.684C82.1854 438.958 81.9925 440.967 81.8319 442.566C81.8078 442.823 81.5908 443.007 81.3417 443.007C81.3257 443.015 81.3096 443.015 81.2935 443.007ZM82.4184 431.253C82.1452 431.229 81.9524 430.988 81.9765 430.715C82.1532 428.818 82.338 426.842 82.5309 424.841C82.555 424.568 82.796 424.375 83.0692 424.399C83.3423 424.424 83.5352 424.665 83.5111 424.938C83.3263 426.946 83.1415 428.923 82.9567 430.819C82.9326 431.076 82.7157 431.261 82.4666 431.261C82.4505 431.253 82.4344 431.253 82.4184 431.253ZM83.5111 419.498C83.2379 419.474 83.0451 419.233 83.0692 418.968C83.254 416.968 83.4307 414.991 83.5914 413.087C83.6155 412.814 83.8566 412.613 84.1217 412.637C84.3949 412.661 84.5877 412.902 84.5716 413.167C84.4029 415.071 84.2261 417.048 84.0494 419.049C84.0253 419.306 83.8083 419.498 83.5593 419.498C83.5432 419.498 83.5271 419.498 83.5111 419.498ZM84.5475 407.736C84.2744 407.712 84.0735 407.479 84.0976 407.206C84.2904 404.819 84.4431 402.899 84.5556 401.324C84.5716 401.051 84.8127 400.858 85.0778 400.866C85.351 400.882 85.5518 401.123 85.5358 401.389C85.4233 402.963 85.2787 404.892 85.0778 407.286C85.0537 407.543 84.8448 407.736 84.5877 407.736C84.5716 407.736 84.5556 407.736 84.5475 407.736ZM85.3429 395.957C85.0698 395.949 84.8609 395.716 84.8769 395.443C84.9573 393.555 85.0296 391.578 85.0858 389.562C85.0939 389.289 85.3269 389.08 85.592 389.08C85.8652 389.088 86.0741 389.313 86.0661 389.586C86.0098 391.611 85.9455 393.587 85.8572 395.483C85.8491 395.748 85.6322 395.949 85.367 395.949C85.359 395.957 85.351 395.957 85.3429 395.957ZM85.6804 384.179C85.4072 384.179 85.1903 383.954 85.1983 383.681C85.2224 381.857 85.2305 379.969 85.2305 378.064V377.791C85.2305 377.518 85.4474 377.301 85.7206 377.301C85.9937 377.301 86.2107 377.518 86.2107 377.791V378.064C86.2107 379.969 86.2026 381.865 86.1785 383.689C86.1705 383.962 85.9536 384.179 85.6804 384.179ZM85.1903 371.91C85.1662 369.813 85.126 367.836 85.0858 366.021C85.0778 365.747 85.2947 365.523 85.5679 365.523H85.5759C85.8411 365.523 86.058 365.731 86.0661 366.005C86.1062 367.828 86.1464 369.805 86.1705 371.902C86.1705 372.175 85.9536 372.392 85.6884 372.4C85.6884 372.4 85.6884 372.4 85.6804 372.4C85.4153 372.4 85.1903 372.183 85.1903 371.91ZM84.9251 360.139C84.8046 356.508 84.6921 354.274 84.6841 354.258C84.668 353.985 84.8769 353.76 85.1501 353.744C85.4153 353.728 85.6483 353.937 85.6643 354.21C85.6643 354.234 85.7768 356.468 85.9054 360.115C85.9134 360.388 85.7045 360.613 85.4313 360.621C85.4233 360.621 85.4233 360.621 85.4153 360.621C85.1501 360.613 84.9332 360.405 84.9251 360.139Z" fill="#2E2E47"/>
<path d="M208.938 187.333C209.043 187.333 209.147 187.301 209.235 187.228C209.316 187.164 217.479 180.929 224.951 178.84C237.38 175.353 246.467 182.295 246.556 182.368C246.773 182.536 247.078 182.496 247.247 182.279C247.415 182.062 247.375 181.757 247.166 181.588C247.07 181.516 237.613 174.269 224.694 177.892C217.037 180.038 208.986 186.192 208.649 186.449C208.432 186.618 208.392 186.923 208.56 187.14C208.641 187.269 208.785 187.333 208.938 187.333Z" fill="#2E2E47"/>
<path d="M95.5787 200.582C95.7956 200.582 95.9885 200.437 96.0527 200.228C96.109 200.027 101.846 179.789 104.891 163.205C104.939 162.94 104.762 162.683 104.497 162.635C104.224 162.587 103.975 162.763 103.927 163.029C100.89 179.564 95.1689 199.754 95.1127 199.955C95.0404 200.212 95.193 200.485 95.4501 200.558C95.4903 200.582 95.5305 200.582 95.5787 200.582Z" fill="#2E2E47"/>
<path d="M213.028 184.513C213.18 184.513 213.325 184.449 213.421 184.32C213.47 184.256 218.25 177.981 227.265 175.241C236.288 172.501 243.326 174.598 243.398 174.614C243.655 174.695 243.928 174.55 244.009 174.293C244.089 174.036 243.944 173.763 243.687 173.682C243.39 173.594 236.304 171.473 226.984 174.301C217.647 177.137 212.843 183.46 212.642 183.725C212.481 183.942 212.521 184.248 212.738 184.408C212.827 184.481 212.923 184.513 213.028 184.513Z" fill="#2E2E47"/>
<path d="M494.451 630.622C487.976 631.698 483.067 637.925 471.2 638.648C464.402 639.058 458.915 637.66 455.452 636.39C454.303 629.4 457.589 619.59 458.754 617.919C460.377 615.597 464.443 613.934 470.195 614.263C475.948 614.593 485.549 613.837 487.469 619.277C487.469 619.277 500.823 623.286 504.912 633.281C502.719 631.875 498.742 629.907 494.451 630.622Z" fill="#2E2E47"/>
<path d="M480.062 586.207L484.787 616.256C484.787 616.256 482.039 614.922 477.314 614.657C470.919 614.295 466.918 616.272 465.423 618.313C463.929 620.353 464.138 624.459 462.001 624.33C459.863 624.202 451.749 591.076 452.174 588.938C452.6 586.809 479.516 583.756 480.062 586.207Z" fill="#EAE6E4"/>
<path d="M471.2 638.648C483.067 637.925 487.984 631.698 494.452 630.622C498.742 629.906 502.719 631.875 504.913 633.281C505.965 635.86 506.407 638.833 505.845 642.247C504.567 649.937 461.092 647.036 457.573 642.641C456.585 641.412 455.902 639.114 455.452 636.39C458.907 637.66 464.403 639.058 471.2 638.648Z" fill="#EAE6E4"/>
<path d="M494.412 623.623C494.412 623.623 485.51 623.543 480.77 624.901C476.029 626.259 474.832 627.858 473.796 627.375C472.759 626.893 471.482 626.821 472.518 625.544C473.555 624.258 474.117 623.945 474.117 623.945C474.117 623.945 471.723 625.142 470.437 624.266C469.16 623.39 468.678 622.025 469.16 621.631C469.642 621.229 471.241 620.988 471.241 620.988C471.241 620.988 468.123 620.667 468.123 620.193C468.123 619.711 467.882 618.594 469.883 618.192C471.884 617.79 485.47 617.871 488.025 618.192C490.58 618.513 488.82 619.791 488.82 619.791C488.82 619.791 490.949 619.365 491.536 620.273C492.122 621.181 490.974 621.55 490.974 621.55C490.974 621.55 494.573 621.229 494.412 623.623Z" fill="white"/>
<path d="M366.414 579.707L337.867 575.312C339.554 596.234 341.507 601.778 341.057 612.319C340.358 628.774 334.951 631.947 340.35 632.18C357.246 632.911 361.151 625.929 363.232 614.159C365.177 603.176 365.795 587.685 366.414 579.707Z" fill="#EAE6E4"/>
<path d="M300.941 631.393C301.584 635.185 302.749 638.327 305.111 640.833C307.473 643.34 316.327 643.131 320.409 642.103C324.49 641.074 355.584 635.466 358.115 634.583C359.746 634.012 364.325 632.244 367.378 631.055C368.849 626.211 363.434 614.496 363.233 614.159C360.453 615.284 356.572 618.369 356.202 620.691C355.769 623.382 347.364 622.402 347.308 619.871C347.051 607.9 338.759 613.749 338.759 613.749C338.759 613.749 316.544 622.201 313.852 622.515C311.153 622.828 306.79 621.591 300.419 624.652C299.181 625.246 298.137 625.865 297.245 626.532C298.29 627.078 300.459 628.541 300.941 631.393Z" fill="#2E2E47"/>
<path d="M367.266 631.417C367.314 631.296 367.354 631.176 367.386 631.047C364.333 632.236 359.754 634.004 358.123 634.575C355.592 635.458 324.498 641.066 320.417 642.095C316.335 643.123 307.481 643.332 305.119 640.825C302.757 638.319 301.584 635.185 300.949 631.385C300.467 628.533 298.298 627.078 297.253 626.524C293.557 629.28 292.754 632.743 293.975 637.748C295.486 643.951 305.175 649.591 313.836 648.683C322.498 647.767 346.232 640.576 350.369 639.636C354.491 638.688 365.378 636.238 367.266 631.417Z" fill="#EAE6E4"/>
<path d="M333.264 624.114C332.774 621.92 328.749 618.972 328.749 618.972C326.346 618.586 326.748 621.366 326.748 621.366C326.748 621.366 325.173 620.048 325.085 619.839C324.996 619.63 321.807 622.065 321.807 622.065L321.1 620.667C321.1 620.667 319.734 620.538 317.259 621.125C314.785 621.719 316.239 623.551 316.239 623.551C316.239 623.551 314.56 621.639 313.547 621.454C312.535 621.269 309.65 621.615 309.184 622.185C308.718 622.756 312.671 629.127 313.885 629.24C315.09 629.352 316.689 628.083 316.689 628.083C316.689 628.083 317.195 629.296 318.022 629.304C318.85 629.32 321.108 628.645 322.08 628.292C323.052 627.938 323.462 626.042 323.462 626.042C323.462 626.042 324.064 627.247 324.386 627.914C324.707 628.589 327.158 627.85 327.736 627.384C328.315 626.918 329.464 625.11 329.464 625.11C329.464 625.11 330.187 626.902 330.275 627.102C330.363 627.311 333.248 626.966 333.537 626.853C333.834 626.749 333.754 626.307 333.264 624.114Z" fill="white"/>
<path d="M459.807 97.1615C459.807 97.1615 469.425 105.766 465.375 113.56C461.326 121.353 451.106 127.259 443.353 125.379C435.599 123.499 444.052 98.3907 449.339 96.6392C454.625 94.8957 457.735 94.2048 459.807 97.1615Z" fill="#C96B59"/>
<path d="M396.873 169.079C398.874 163.695 399.774 147.61 385.416 148.084C369.339 148.623 326.539 208.086 326.539 208.086C326.539 208.086 298.314 150.23 281.28 149.265C276.05 148.968 257.948 158.738 260.712 170.854C266.947 198.188 290.641 252.871 314.808 259.178C330.251 263.211 345.99 258.752 355.785 247.592C367.86 232.961 389.288 189.47 396.873 169.079Z" fill="#FA634B"/>
<path d="M455.251 144.943L461.518 138.78C461.518 138.78 465.375 130.352 446.14 126.897C426.906 123.442 405.831 123.033 403.959 131.292C402.087 139.544 406.193 150.671 422.945 150.246C439.696 149.82 455.251 144.943 455.251 144.943Z" fill="#2E2E47"/>
<path d="M444.212 284.8C442.236 332.846 500.14 593.141 500.14 593.141C500.325 593.06 491.76 599.769 474.478 599.873C448.422 600.026 436.941 599.873 436.941 599.873L382.885 413.039L384.178 596.828C384.178 596.828 372.769 599.793 351.55 599.873C335.626 599.938 326.386 593.149 326.386 593.149C326.386 593.149 312.229 380.997 312.165 328.845C312.157 320.192 310.694 283.201 318.576 262.287C356.065 285.933 419.787 285.29 444.212 284.8Z" fill="#946255"/>
<path d="M384.186 416.783C384.227 416.783 384.267 416.775 384.307 416.767C384.572 416.702 384.733 416.437 384.66 416.172C384.178 414.26 372.842 369.242 366.888 360.541C360.838 351.703 336.405 350.908 335.369 350.884C335.096 350.868 334.871 351.093 334.863 351.358C334.854 351.631 335.071 351.856 335.337 351.864C335.586 351.872 360.308 352.675 366.077 361.095C371.934 369.652 383.592 415.947 383.704 416.413C383.769 416.63 383.97 416.783 384.186 416.783Z" fill="#2E2E47"/>
<path d="M312.156 328.837C312.156 327.278 312.108 324.804 312.076 321.67C329.166 324.836 412.267 340.374 419.932 344.4C428.48 348.891 437.881 352.732 437.881 352.732C437.881 352.732 384.556 353.495 356.877 351.358C335.955 349.743 322.891 348.666 312.486 346.449C312.285 339.475 312.165 333.513 312.156 328.837Z" fill="#2E2E47"/>
<path d="M359.77 363.675C359.954 363.675 360.139 363.562 360.219 363.385C360.332 363.136 360.219 362.847 359.97 362.735C357.391 361.594 346.89 360.429 338.454 359.497C334.34 359.039 330.789 358.645 329.552 358.396C328.941 358.275 328.483 357.954 328.138 357.424C326.868 355.463 327.728 351.51 327.744 351.47C327.8 351.205 327.639 350.94 327.374 350.884C327.109 350.827 326.844 350.988 326.788 351.253C326.748 351.43 325.824 355.656 327.318 357.962C327.808 358.717 328.491 359.183 329.359 359.36C330.644 359.617 334.043 359.995 338.349 360.469C346.28 361.345 357.142 362.55 359.577 363.626C359.641 363.659 359.705 363.675 359.77 363.675Z" fill="#2E2E47"/>
<path d="M485.63 593.558C485.67 593.558 485.719 593.55 485.759 593.542C486.016 593.47 486.169 593.197 486.096 592.94C486.072 592.843 483.34 583.065 481.79 575.328C481.34 573.062 480.143 566.233 478.632 557.596C474.792 535.629 468.999 502.431 466.484 492.934C465.504 489.214 464.258 483.309 462.828 476.471C459.092 458.659 453.974 434.266 448.013 422.624C439.914 406.82 437.495 355.407 437.471 354.893C437.455 354.62 437.23 354.411 436.957 354.427C436.684 354.443 436.475 354.668 436.491 354.941C436.499 355.07 437.102 368.094 438.701 382.909C440.854 402.843 443.69 416.357 447.137 423.082C453.042 434.611 458.144 458.924 461.864 476.68C463.302 483.534 464.54 489.455 465.536 493.191C468.043 502.648 473.836 535.822 477.668 557.773C479.179 566.426 480.376 573.255 480.826 575.529C482.384 583.298 485.124 593.116 485.148 593.213C485.212 593.414 485.413 593.558 485.63 593.558Z" fill="#2E2E47"/>
<path d="M368.736 582.961C368.76 582.961 368.784 582.961 368.809 582.953C369.074 582.913 369.267 582.663 369.226 582.398C369.146 581.852 361.73 525.948 364.743 507.235C365.225 504.222 365.675 501.563 366.085 499.137C368.182 486.659 369.234 480.392 369.234 463.624C369.234 443.819 360.356 370.166 360.26 369.427C360.228 369.162 359.987 368.969 359.714 369.001C359.448 369.034 359.256 369.283 359.288 369.548C359.376 370.287 368.254 443.883 368.254 463.624C368.254 480.312 367.21 486.546 365.121 498.976C364.711 501.402 364.269 504.062 363.779 507.083C360.742 525.932 368.182 581.997 368.262 582.543C368.286 582.784 368.495 582.961 368.736 582.961Z" fill="#2E2E47"/>
<path d="M380.064 346.336C401.067 348.337 430.706 354.523 445.964 356.596C449.627 357.094 452.913 354.29 453.01 350.594C454.143 307.216 451.62 202.848 451.62 184.015C451.62 153.757 436.772 140.443 405.445 142.171C386.251 143.231 368.937 154.046 359.183 170.613C346.938 191.398 306.372 248.363 307.818 326.451C310.646 341.499 346.609 343.146 380.064 346.336Z" fill="#FA634B"/>
<path d="M437.367 122.543C437.367 122.543 437.294 132.979 435.294 147.57C434.723 151.708 421.836 155.95 415.328 145.361C413.368 142.171 419.948 125.708 421.603 123.442C423.25 121.177 435.238 118.116 437.367 122.543Z" fill="#FFD3B5"/>
<path d="M421.595 139.592C419 140.644 416.895 140.853 415.288 140.717C415.73 138.395 416.566 135.583 417.514 132.891L433.502 132.851C433.502 132.851 428.224 136.9 421.595 139.592Z" fill="#2E2E47"/>
<path d="M451.484 124.326C451.484 124.326 454.682 125.925 457.968 122.398C464.845 115.022 458.257 110.981 457.574 110.539C456.891 110.097 468.541 99.1942 466.886 89.4644C465.231 79.7346 459.438 69.2174 445.643 65.7304C431.847 62.2435 422.664 67.4177 416.365 71.7081C410.058 75.9986 409.327 85.0053 407.037 90.4607C404.747 95.9161 399.396 99.8209 397.379 102.504C392.719 108.691 391.209 120.936 406.073 129.983C425.693 141.938 445.329 131.276 451.484 124.326Z" fill="#FFD3B5"/>
<path d="M413.769 95.9724C412.974 97.5552 411.431 98.3827 410.323 97.8203C409.222 97.2659 408.973 95.5305 409.768 93.9477C410.564 92.3649 412.106 91.5373 413.215 92.0997C414.316 92.6541 414.565 94.3896 413.769 95.9724Z" fill="#2E2E47"/>
<path d="M429.22 105.236C428.424 106.819 426.882 107.647 425.773 107.084C424.672 106.53 424.423 104.794 425.218 103.211C426.014 101.629 427.557 100.801 428.665 101.364C429.774 101.926 430.015 103.653 429.22 105.236Z" fill="#2E2E47"/>
<path d="M408.82 100.689C408.185 102.376 405.654 102.995 403.172 102.063C400.681 101.131 399.179 99.0095 399.813 97.3142C400.448 95.6269 402.979 95.0083 405.462 95.9403C407.952 96.8723 409.455 99.0014 408.82 100.689Z" fill="#FFA982"/>
<path d="M429.381 114.058C428.36 115.544 425.757 115.536 423.564 114.042C421.37 112.54 420.422 110.113 421.443 108.627C422.463 107.14 425.066 107.148 427.26 108.643C429.445 110.137 430.401 112.564 429.381 114.058Z" fill="#FFA982"/>
<path d="M415.247 107.004C415.28 107.004 415.32 107.004 415.352 106.996C415.617 106.939 415.786 106.674 415.729 106.409C415.705 106.297 415.103 103.565 413.898 102.36C412.612 101.074 409.912 101.508 409.8 101.532C409.535 101.58 409.35 101.83 409.398 102.095C409.438 102.36 409.696 102.545 409.961 102.496C410.603 102.392 412.435 102.287 413.207 103.051C414.211 104.055 414.773 106.586 414.773 106.618C414.814 106.851 415.022 107.004 415.247 107.004Z" fill="#2E2E47"/>
<path d="M414.179 98.8568C414.3 98.8568 414.42 98.8086 414.517 98.7202C416.429 96.8883 417.61 95.3698 418.036 94.1887C418.414 93.1362 418.614 92.0355 418.614 90.9106C418.622 89.135 417.61 87.4718 416.035 86.6764C413.287 85.2865 410.508 85.0052 410.387 84.9972C410.122 84.9731 409.881 85.1659 409.849 85.4391C409.825 85.7123 410.017 85.9453 410.291 85.9774C410.315 85.9774 413.014 86.2586 415.585 87.5522C416.831 88.1789 417.634 89.4965 417.626 90.9026C417.618 91.9149 417.449 92.9112 417.104 93.8513C416.734 94.8716 415.601 96.3098 413.826 98.0131C413.633 98.1979 413.625 98.5113 413.81 98.7041C413.914 98.8086 414.051 98.8568 414.179 98.8568Z" fill="#2E2E47"/>
<path d="M435.655 101.404C435.727 101.404 435.8 101.388 435.872 101.356C436.113 101.235 436.218 100.938 436.097 100.697C433.783 96.0366 428.247 93.0719 428.014 92.9514C427.773 92.8228 427.476 92.9193 427.347 93.1523C427.219 93.3933 427.315 93.6906 427.548 93.8191C427.604 93.8513 433.036 96.7598 435.205 101.139C435.302 101.307 435.478 101.404 435.655 101.404Z" fill="#2E2E47"/>
<path d="M430.376 104.714C430.392 104.714 430.4 104.714 430.417 104.714C430.69 104.69 430.891 104.457 430.866 104.184C430.866 104.135 430.457 99.7084 425.057 99.7084C424.784 99.7084 424.567 99.9254 424.567 100.199C424.567 100.472 424.784 100.689 425.057 100.689C429.533 100.689 429.878 104.119 429.894 104.264C429.91 104.521 430.127 104.714 430.376 104.714Z" fill="#2E2E47"/>
<path d="M414.532 94.5101C414.573 94.5101 414.621 94.5021 414.661 94.494C414.926 94.4217 415.079 94.1486 415.006 93.8914C414.685 92.7345 413.311 90.6053 410.346 90.8464C410.073 90.8705 409.872 91.1035 409.896 91.3766C409.921 91.6498 410.154 91.8507 410.427 91.8266C413.319 91.5936 414.034 94.0521 414.058 94.1566C414.115 94.3655 414.315 94.5101 414.532 94.5101Z" fill="#2E2E47"/>
<path d="M416.983 112.74L403.814 105.027C403.814 105.027 402.874 108.064 404.313 111.913C405.751 115.769 414.565 116.139 416.983 112.74Z" fill="white"/>
<path d="M448.937 209.613C448.937 209.613 445.835 272.852 431.196 293.598C416.557 314.343 388.019 313.483 371.588 303.681C355.158 293.879 341.29 256.261 341.29 256.261C341.29 256.261 373.958 277.022 395.113 274.291C419.916 271.085 448.937 209.613 448.937 209.613Z" fill="#2E2E47"/>
<path d="M417.538 144.517C417.538 144.517 439.906 145.385 450.496 142.886C456.056 141.576 461.519 138.796 461.519 138.796C461.519 138.796 454.28 166.676 446.069 166.676C437.857 166.676 416.132 162.354 409.005 159.437C401.871 156.521 402.128 132.168 403.96 131.3C405.8 130.432 409.881 137.422 409.881 137.422L417.538 144.517Z" fill="#FA634B"/>
<path d="M343.25 153.363C345.219 153.363 347.067 153.901 348.642 154.841C349.983 155.645 351.14 156.737 352.008 158.031L383.777 188.112L275.752 207.483L239.975 173.465C239.46 172.975 239.83 172.107 240.545 172.14L241.027 172.164V157.3L239.187 155.468C238.408 154.689 238.954 153.355 240.063 153.355H343.25V153.363Z" fill="#9C6F43"/>
<path d="M280.871 186.377H377.976C383.809 186.377 388.533 191.101 388.533 196.934C388.533 202.767 383.809 207.491 377.976 207.491H280.871C278.051 207.491 275.761 205.202 275.761 202.382V191.495C275.761 188.667 278.043 186.377 280.871 186.377Z" fill="#EAE6E4"/>
<path d="M385.376 196.934C385.376 192.853 382.057 189.534 377.976 189.534H278.918H275.761V186.377H377.976C383.809 186.377 388.533 191.101 388.533 196.934C388.533 202.767 383.809 207.491 377.976 207.491H275.761V204.334H377.976C382.057 204.334 385.376 201.008 385.376 196.934Z" fill="#9C6F43"/>
<path d="M275.76 189.534L241.035 157.308V172.172L275.76 204.334V189.534Z" fill="#EAE6E4"/>
<path d="M372.616 181.476L285.04 180.351C281.577 180.303 278.299 178.768 276.057 176.133L247.43 147.345C245.767 145.674 244.819 143.416 244.795 141.054C244.795 140.982 244.795 140.917 244.795 140.845C244.779 134.434 250.058 129.267 256.469 129.267H325.02L373.082 180.431C373.444 180.833 373.154 181.484 372.616 181.476Z" fill="#FA634B"/>
<path d="M367.988 164.933V177.844H285.522C283.12 177.844 280.958 176.366 280.131 174.108C279.801 173.208 279.488 172.212 279.271 171.192C278.419 167.19 281.561 163.446 285.65 163.527L367.988 164.933Z" fill="#EAE6E4"/>
<path d="M371.451 164.989L285.643 163.519L324.996 129.275L371.797 163.96C372.255 164.29 372.014 164.997 371.451 164.989Z" fill="#FA634B"/>
<path d="M273.037 173.104L267.863 167.905C267.622 164.748 267.678 158.497 271.342 155.38L276.556 158.465C276.564 158.465 271.414 163.446 273.037 173.104Z" fill="#FFC97D"/>
<path d="M261.355 161.357C261.314 158.007 261.853 153.226 264.914 150.623L270.128 153.708C270.128 153.708 265.677 158.023 266.36 166.387L261.355 161.357Z" fill="#FFC97D"/>
<path d="M369.636 152.576H269.269C268.023 152.576 266.834 152.053 265.998 151.129L235.556 117.69L241.228 117.288V101.813L237.621 97.9167L338.012 96.366L373.091 129.669L369.636 152.576Z" fill="#FFC97D"/>
<path d="M241.229 101.821L272.531 133.22L269.189 148.349L241.229 117.288V101.821Z" fill="#EAE6E4"/>
<path d="M351.759 123.708L331.994 101.821H259.104L278.162 123.185L351.759 123.708Z" fill="#FFEA8F"/>
<path d="M314.463 80.6746C315.676 80.6746 316.809 81.0121 317.781 81.5906C318.609 82.0807 319.316 82.7556 319.854 83.559L355.576 117.4L289.026 129.332L250.83 93.0639C250.508 92.7585 250.741 92.2283 251.183 92.2443L251.481 92.2604V83.101L250.348 81.9762C249.866 81.4941 250.203 80.6746 250.886 80.6746H314.463Z" fill="#2E2E47"/>
<path d="M289.042 129.332H352.386C355.769 129.332 358.516 126.592 358.516 123.201V122.454C358.516 119.072 355.777 116.324 352.386 116.324H289.042V129.332Z" fill="#EAE6E4"/>
<path d="M356.564 122.832C356.564 120.317 354.524 118.276 352.009 118.276H290.979H289.034V116.332H352.009C355.6 116.332 358.509 119.24 358.509 122.832C358.509 126.423 355.6 129.332 352.009 129.332H289.034V127.387H352.009C354.524 127.387 356.564 125.338 356.564 122.832Z" fill="#2E2E47"/>
<path d="M289.042 118.268L251.497 83.1091V92.2604L289.042 127.387V118.268Z" fill="#EAE6E4"/>
<path d="M315.346 215.759C327.639 217.527 335.601 202.968 327.35 193.688C326.233 192.435 324.883 191.286 323.244 190.354C313.675 184.898 311.088 181.556 308.075 179.226C305.062 176.896 304.331 181.275 308.638 185.654C312.944 190.032 311.932 187.518 312.084 190.603C312.237 193.688 297.855 193.005 293.485 191.503C288.053 189.639 285.474 192.451 288.471 194.09C293.219 196.693 298.048 196.613 298.048 196.613C298.048 196.613 285.627 197.239 284.341 199.224C283.056 201.209 286.864 201.787 286.864 201.787C286.864 201.787 283.891 203.161 284.63 204.639C285.37 206.126 297.727 209.701 297.727 209.701C297.727 209.701 292.159 209.38 291.452 212.69C290.745 215.992 303.978 214.401 306.525 214.04C307.569 213.895 311.104 215.148 315.346 215.759Z" fill="#FFD3B5"/>
<path d="M452.287 190.282C453.034 184.585 450.31 168.709 436.427 172.381C420.88 176.502 392.462 244.033 392.462 244.033C392.462 244.033 352.008 193.953 335.192 196.83C330.025 197.714 314.575 211.284 319.974 222.476C332.171 247.72 367.49 295.719 392.462 296.458C408.418 296.932 422.76 289.074 429.806 276.002C438.307 259.033 449.459 211.854 452.287 190.282Z" fill="#FA634B"/>
<path d="M401.597 271.575C401.742 271.575 401.87 271.535 401.959 271.495C402.618 271.197 403.847 270.635 398.93 255.9C396.785 249.456 394.366 243.052 393.924 241.887L394.728 240.039C395.595 238.055 424.536 184.159 424.825 183.613C424.954 183.372 424.865 183.075 424.624 182.946C424.383 182.818 424.086 182.906 423.957 183.147C422.76 185.372 394.712 237.621 393.828 239.646L392.944 241.67C392.896 241.791 392.888 241.919 392.936 242.04C397.869 254.935 402.385 269.004 401.549 270.571C400.079 270 395.853 258.278 392.719 247.568C392.647 247.327 392.414 247.182 392.165 247.222C391.916 247.262 391.747 247.487 391.755 247.736C392.141 254.349 392.358 261.596 392.165 264.697C391.458 260.471 390.55 248.411 390.076 240.554C390.068 240.441 390.028 240.337 389.947 240.256L371.95 220.499C371.765 220.299 371.46 220.282 371.259 220.467C371.058 220.652 371.042 220.957 371.227 221.158L389.112 240.787C389.176 241.839 389.529 247.544 389.995 253.272C391.04 266.24 391.57 266.65 391.884 266.891C392.02 266.995 392.189 267.035 392.35 267.003C392.88 266.899 393.434 266.786 393.153 257.024C393.097 255.168 393.024 253.304 392.952 251.738C395.033 258.479 399.002 270.49 401.179 271.486C401.332 271.551 401.469 271.575 401.597 271.575Z" fill="#2E2E47"/>
<path d="M448.92 166.082C449.193 166.082 449.41 165.865 449.41 165.591C449.41 165.318 449.193 165.101 448.92 165.101C448.687 165.101 425.46 164.973 415.89 163.27C405.582 161.438 404.112 156.529 403.324 153.885C402.256 150.326 402.248 144.147 402.248 144.083C402.248 143.81 402.031 143.593 401.758 143.593C401.485 143.593 401.268 143.81 401.268 144.083C401.268 144.34 401.284 150.462 402.384 154.166C403.646 158.393 406.136 162.53 415.722 164.234C425.379 165.945 448.687 166.082 448.92 166.082Z" fill="#2E2E47"/>
<path d="M413.536 160.184C413.536 160.184 407.373 196.492 406.514 200.164C405.646 203.836 402.408 201.956 401.757 201.112C401.107 200.268 408.892 157.798 409.318 158.127C409.752 158.457 413.536 160.184 413.536 160.184Z" fill="white"/>
<path d="M407.912 156.432C407.912 156.432 401.356 175.088 400.383 178.583C399.411 182.086 397.812 192.957 396.302 192.845C394.791 192.74 391.546 191.872 391.441 188.522C391.337 185.172 403.83 152.559 405.413 153.25C407.004 153.949 407.912 156.432 407.912 156.432Z" fill="white"/>
<path d="M349.044 267.815C349.148 267.815 349.252 267.783 349.341 267.718C349.558 267.558 349.598 267.244 349.437 267.027C349.148 266.65 320.738 229.265 319.34 220.515C319.3 220.25 319.043 220.066 318.778 220.106C318.512 220.146 318.328 220.403 318.368 220.668C319.806 229.667 347.477 266.079 348.658 267.622C348.754 267.742 348.899 267.815 349.044 267.815Z" fill="#2E2E47"/>
<path d="M316.697 260.126C316.913 260.126 317.114 259.981 317.171 259.764C319.099 252.573 325.912 234.23 325.984 234.046C326.081 233.789 325.952 233.507 325.695 233.411C325.446 233.315 325.157 233.443 325.06 233.7C324.988 233.885 318.159 252.268 316.222 259.507C316.15 259.772 316.311 260.037 316.568 260.11C316.616 260.126 316.656 260.126 316.697 260.126Z" fill="#2E2E47"/>
<path d="M451.483 104.023C451.483 104.023 442.195 96.8321 433.783 93.321C425.371 89.8099 419.948 85.7203 419.506 84.4268C419.064 83.1412 418.992 80.6666 418.992 80.6666C418.992 80.6666 417.095 82.7717 415.609 83.6474C414.123 84.5232 408.145 80.3533 408.129 77.9108C408.113 75.4763 421.482 58.4753 435.671 58.1298C449.86 57.7843 464.346 68.7032 467.994 73.9899C467.994 73.9899 476.583 78.9311 478.102 88.5726C479.62 98.214 470.822 111.608 464.925 113.455C462.314 114.275 462.274 110.153 459.815 107.944C456.714 105.156 451.483 104.023 451.483 104.023Z" fill="#C96B59"/>
<path d="M452.303 100.914C452.303 100.914 448.222 112.21 453.002 112.531C457.783 112.853 465.624 109.213 464.861 107.365C464.098 105.517 452.303 100.914 452.303 100.914Z" fill="#C96B59"/>
</svg>
