<svg width="28" height="27" viewBox="0 0 28 27" fill="none" xmlns="http://www.w3.org/2000/svg">
<path fill-rule="evenodd" clip-rule="evenodd" d="M8.64272 5.5C8.64272 4.07919 9.20713 2.71658 10.2118 1.71192C11.2164 0.707264 12.5791 0.142853 13.9999 0.142853C15.4207 0.142853 16.7833 0.707264 17.7879 1.71192C18.7926 2.71658 19.357 4.07919 19.357 5.5C19.357 6.9208 18.7926 8.28341 17.7879 9.28807C16.7833 10.2927 15.4207 10.8571 13.9999 10.8571C12.5791 10.8571 11.2164 10.2927 10.2118 9.28807C9.20713 8.28341 8.64272 6.9208 8.64272 5.5ZM19.357 9.78571C19.357 8.64907 19.8085 7.55898 20.6123 6.75525C21.416 5.95152 22.5061 5.5 23.6427 5.5C24.7794 5.5 25.8694 5.95152 26.6732 6.75525C27.4769 7.55898 27.9284 8.64907 27.9284 9.78571C27.9284 10.9224 27.4769 12.0124 26.6732 12.8162C25.8694 13.6199 24.7794 14.0714 23.6427 14.0714C22.5061 14.0714 21.416 13.6199 20.6123 12.8162C19.8085 12.0124 19.357 10.9224 19.357 9.78571ZM0.0712891 9.78571C0.0712891 8.64907 0.522818 7.55898 1.32655 6.75525C2.13027 5.95152 3.22036 5.5 4.357 5.5C5.49365 5.5 6.58373 5.95152 7.38746 6.75525C8.19119 7.55898 8.64272 8.64907 8.64272 9.78571C8.64272 10.9224 8.19119 12.0124 7.38746 12.8162C6.58373 13.6199 5.49365 14.0714 4.357 14.0714C3.22036 14.0714 2.13027 13.6199 1.32655 12.8162C0.522818 12.0124 0.0712891 10.9224 0.0712891 9.78571ZM5.87129 17.4529C6.74265 16.0872 7.94426 14.9632 9.36503 14.1849C10.7858 13.4066 12.3799 12.9991 13.9999 13C15.3567 12.9988 16.6986 13.2841 17.9376 13.8374C19.1765 14.3906 20.2847 15.1993 21.1895 16.2105C22.0943 17.2217 22.7753 18.4126 23.1879 19.7052C23.6006 20.9978 23.7356 22.363 23.5841 23.7114C23.5656 23.8789 23.5078 24.0397 23.4155 24.1807C23.3232 24.3217 23.1989 24.4389 23.0527 24.5229C20.2978 26.1036 17.1761 26.9332 13.9999 26.9286C10.707 26.9286 7.61415 26.0543 4.947 24.5229C4.80085 24.4389 4.67655 24.3217 4.58421 24.1807C4.49187 24.0397 4.43409 23.8789 4.41557 23.7114C4.17565 21.5209 4.68909 19.314 5.87129 17.4543V17.4529Z" fill="#0DA8DB"/>
</svg>
