<svg width="36" height="36" viewBox="0 0 36 36" fill="none" xmlns="http://www.w3.org/2000/svg">
<path d="M17.9998 0.857178C22.736 0.857178 27.0147 2.77716 30.1233 5.87652C33.2227 8.97588 35.1429 13.2641 35.1429 18C35.1429 22.7362 33.2227 27.0147 30.1233 30.1236C27.0242 33.2229 22.736 35.1429 17.9998 35.1429C13.2639 35.1429 8.98512 33.2229 5.87655 30.1236C2.77691 27.0242 0.856934 22.736 0.856934 18C0.856934 13.2641 2.77691 8.98508 5.87655 5.87652C8.97563 2.77716 13.2639 0.857178 17.9998 0.857178ZM17.9998 10.3109C18.8316 10.3109 19.6274 10.4389 20.377 10.6858L26.4203 4.70634C23.9885 3.16127 21.0992 2.26501 17.9998 2.26501C15.065 2.26501 12.3221 3.06977 9.97258 4.4684L16.0159 10.5759C16.6469 10.4021 17.3141 10.3198 18.0093 10.3198L17.9998 10.3109ZM21.6844 11.2526C22.3335 11.6091 22.9187 12.0482 23.4309 12.56C24.0066 13.1361 24.5006 13.8125 24.8663 14.5531L30.7269 8.75663C30.2427 8.08911 29.7029 7.45842 29.1177 6.87319C28.6148 6.37025 28.0845 5.90385 27.518 5.47428L21.6755 11.2526H21.6844ZM25.3966 15.9063C25.5885 16.5738 25.6892 17.2778 25.6892 18C25.6892 18.8416 25.5522 19.655 25.2962 20.4232L31.2664 26.4577C32.8204 24.0163 33.7256 21.1178 33.7256 18.0003C33.7256 15.029 32.9027 12.2588 31.4765 9.89054L25.3966 15.9063ZM24.7291 21.7122C24.3818 22.3432 23.943 22.919 23.4309 23.4311C22.8456 24.0163 22.16 24.5098 21.4012 24.8847L27.2069 30.7453C27.8837 30.2516 28.5238 29.7124 29.118 29.118C29.612 28.6242 30.0689 28.1029 30.4985 27.5455L24.7291 21.7122ZM20.057 25.406C19.399 25.5885 18.7131 25.68 17.9998 25.68C17.113 25.68 16.272 25.5341 15.4765 25.2593L9.46044 31.2114C11.9199 32.8023 14.8458 33.7258 17.9909 33.7258C20.9441 33.7258 23.7143 32.9119 26.0733 31.4948L20.0481 25.406H20.057ZM14.2056 24.6836C13.6022 24.3452 13.0535 23.9246 12.569 23.4403C11.9564 22.8275 11.4446 22.1142 11.0697 21.3281L5.19063 27.1427C5.69356 27.856 6.26038 28.514 6.87294 29.1361C7.33906 29.6019 7.84228 30.0502 8.37228 30.4524L14.1964 24.6928L14.2056 24.6836ZM10.5759 19.9568C10.4114 19.3351 10.3291 18.6765 10.3291 18.0092C10.3291 17.1409 10.4752 16.3088 10.7405 15.5224L4.77946 9.49723C3.19784 11.9475 2.28346 14.8641 2.28346 18C2.28346 20.9167 3.07901 23.6593 4.46844 25.9999L10.5759 19.9476V19.9568ZM11.3165 14.2424C11.6641 13.6298 12.0845 13.0722 12.5782 12.5785C13.1816 11.9751 13.8859 11.4722 14.6628 11.0973L8.85708 5.22741C8.16223 5.73035 7.50392 6.28796 6.89136 6.89132C6.41575 7.36692 5.96777 7.87879 5.5474 8.41827L11.3168 14.2516L11.3165 14.2424ZM22.5073 13.511C21.3552 12.3589 19.7644 11.6457 18.009 11.6457C16.2536 11.6457 14.6628 12.3589 13.5107 13.511C12.3587 14.663 11.6454 16.2538 11.6454 18.009C11.6454 19.7644 12.3587 21.3552 13.5107 22.5075C14.6628 23.6593 16.2536 24.3725 18.009 24.3725C19.7644 24.3725 21.3552 23.6593 22.5073 22.5075C23.6593 21.3552 24.3726 19.7644 24.3726 18.009C24.3726 16.2538 23.6593 14.663 22.5073 13.511Z" fill="#0DA8DB"/>
</svg>
