<svg width="46" height="36" viewBox="0 0 46 36" fill="none" xmlns="http://www.w3.org/2000/svg">
<path d="M29.0571 32.6127C29.1224 32.6127 29.1859 32.618 29.2485 32.6268C29.319 32.6144 29.3939 32.6083 29.4706 32.6083C30.205 32.6083 31.0584 32.5042 31.7734 32.3667C31.8615 32.3526 31.9356 32.3447 32.0282 32.3447C33.6433 32.4399 33.6362 34.621 32.2415 34.8528C31.3864 35.0115 30.3946 35.1385 29.5165 35.1385C29.4283 35.1385 29.3578 35.1332 29.2881 35.1217C29.2132 35.1358 29.1365 35.1429 29.0571 35.1429L28.7389 35.1394C28.7759 35.053 28.805 34.963 28.8288 34.8713L28.8315 34.8634L28.8332 34.8528L28.835 34.8475L28.8385 34.8343L28.842 34.8176V34.8158L28.8491 34.7867L28.85 34.7788L28.8579 34.7409L28.8667 34.6941L28.8676 34.6844L28.8817 34.5857L28.8826 34.5707L28.8835 34.5698L28.8844 34.554V34.5522L28.8861 34.5328L28.8879 34.5222V34.5134L28.8888 34.5064L28.8896 34.4949V34.4905L28.8905 34.4755V34.4746L28.8914 34.4588V34.4561L28.8932 34.4173V34.3979L28.8941 34.3635V34.3468L28.8932 34.3203V34.2992L28.8923 34.2833V34.2807L28.8914 34.2674V34.2613L28.8888 34.2225V34.219L28.8879 34.2022L28.8861 34.1863V34.1828L28.8844 34.1705V34.1634L28.8835 34.1537L28.8817 34.1431V34.1379L28.8799 34.1237V34.122L28.8782 34.1052L28.8773 34.1044L28.8755 34.0894V34.085L28.8729 34.0726L28.872 34.0647L28.8711 34.0567L28.8694 34.0444L28.8685 34.04L28.8658 34.025V34.0241L28.8632 34.0074V34.0056L28.8597 33.9915L28.8588 33.9853L28.857 33.9748L28.8553 33.9659L28.8544 33.9589L28.8517 33.9457L28.8509 33.943L28.8473 33.9263L28.8438 33.9086L28.8429 33.9078L28.8403 33.8919L28.8385 33.8884L28.8359 33.8751L28.835 33.8698L28.8323 33.8575L28.8315 33.8513L28.8288 33.8408L28.8271 33.8328L28.8253 33.824L28.8235 33.8143L28.8218 33.8064L28.8191 33.7958L28.8182 33.7905L28.8156 33.7773L28.8147 33.7737L28.8121 33.7596L28.8112 33.757L28.8077 33.7411V33.7402L28.805 33.7235H28.8041L28.8006 33.7067V33.705L28.798 33.6909L28.7971 33.6865L28.7944 33.6741L28.7936 33.6688L28.7909 33.6583L28.7891 33.6503L28.7874 33.6415L28.7865 33.6336L28.7847 33.6248L28.783 33.6159L28.7812 33.6089L28.7794 33.5974L28.7777 33.593L28.7759 33.5798L28.775 33.5763L28.7724 33.5622V33.5604L28.7689 33.5445L28.7653 33.5287V33.5269L28.7627 33.5128L28.7618 33.5101L28.76 33.4969L28.7592 33.4925L28.7565 33.4811L28.7556 33.4749L28.753 33.4652L28.7521 33.4572L28.7504 33.4493L28.7495 33.4405L28.7477 33.4334L28.7459 33.4229L28.7451 33.4176L28.7433 33.4061L28.7424 33.4026L28.7398 33.3894L28.7362 33.3717V33.3709L28.7336 33.355L28.7301 33.34V33.3382L28.7274 33.3241L28.7265 33.3206L28.7248 33.3091L28.7239 33.3039L28.7221 33.2933L28.7213 33.2871L28.7195 33.2774L28.7177 33.2704L28.716 33.2624L28.7151 33.2536L28.7133 33.2474L28.7116 33.2368L28.7107 33.2324L28.7089 33.2201L28.708 33.2166L28.7063 33.2025L28.7054 33.2016L28.7027 33.1866V33.1857L28.7001 33.1707V33.1698L28.6975 33.1557V33.1531L28.6948 33.1408V33.1363L28.6922 33.1258L28.6913 33.1196L28.6895 33.1099L28.6886 33.1028L28.6869 33.0949L28.686 33.087L28.6842 33.0799L28.6833 33.0702L28.6816 33.0649L28.6798 33.0535L28.6789 33.0491L28.6772 33.0376L28.6763 33.0341L28.6745 33.0209L28.6737 33.02L28.6684 32.99V32.9874L28.664 32.9591L28.6631 32.9547L28.6613 32.9442L28.6604 32.938L28.6587 32.93L28.6569 32.9221L28.656 32.9142L28.641 32.8243L28.604 32.6056C28.7548 32.61 28.9055 32.6127 29.0571 32.6127ZM16.5463 26.9034C16.2227 26.5252 15.9494 26.0447 15.7343 25.4117C14.3422 26.5904 12.5517 26.8822 10.9965 25.7767C10.8749 25.6912 10.7559 25.5968 10.6395 25.4937C10.4482 26.0756 10.1934 26.5534 9.89365 26.9439C10.6571 29.2264 14.9356 30.0745 16.5463 26.9034ZM6.92263 14.9858C9.85927 11.3571 13.2438 9.3832 15.7854 12.6116C18.8473 12.7721 20.0745 17.6368 17.6333 19.6848L17.6183 19.8056C18.4761 19.5472 18.9592 20.152 18.7318 20.9948C18.6154 21.3554 18.477 21.738 18.3447 22.0942C18.2857 22.26 18.2284 22.3799 18.1085 22.4742C17.9225 22.6241 17.695 22.6126 17.4728 22.587C17.427 23.2368 17.1731 23.7076 16.801 24.2339C16.6247 24.4825 16.4396 24.7099 16.2474 24.918C16.4334 25.5616 16.6706 26.0368 16.9571 26.3991C18.4179 27.4473 21.962 27.6951 23.3302 28.4568C25.3068 29.5641 25.253 31.702 25.6859 33.6812H0.714355C1.14282 31.7187 1.09874 29.5464 3.06913 28.4568C4.8059 27.4914 8.10223 27.5522 9.5701 26.2995C9.79932 25.9398 9.98975 25.5025 10.1299 24.9744C9.59391 24.3467 9.01557 23.4016 8.90713 22.5932C8.71406 22.5976 8.5589 22.5756 8.3861 22.4777C7.71873 22.0951 7.56885 20.7101 7.74429 20.0753C7.90298 19.6372 8.14631 19.4952 8.46633 19.504L8.25386 19.363C8.13925 17.9348 8.47426 15.4548 6.92263 14.9858ZM8.97766 20.219C8.63472 20.1 8.39227 20.0454 8.29706 20.2596C8.27326 20.7189 8.23447 21.7213 8.67439 21.9717C8.7987 22.0422 8.95386 22.0105 9.08345 21.9717C9.27653 21.9399 9.45726 22.0246 9.46255 22.2423C9.48723 23.317 10.5028 24.7126 11.3333 25.3024C13.1979 26.6274 15.1683 25.529 16.3276 23.8962C16.7199 23.3426 16.9465 22.8832 16.8874 22.178C16.8839 22.1163 16.898 22.0519 16.9342 21.9964C16.9762 21.9315 17.0422 21.886 17.1177 21.8698C17.1933 21.8536 17.2722 21.868 17.3371 21.91C17.4984 22.0166 17.5628 22.0193 17.7461 22.0193C17.7549 22.014 17.7726 21.969 17.7973 21.8994L18.1711 20.8362C18.2354 20.5902 18.2786 20.3072 17.9463 20.3328C17.7832 20.3451 17.5927 20.4236 17.4243 20.5514C17.3777 20.5866 17.3215 20.607 17.263 20.61C17.2046 20.6129 17.1467 20.5982 17.0967 20.5678C17.0467 20.5374 17.007 20.4927 16.9828 20.4394C16.9585 20.3862 16.9508 20.3269 16.9606 20.2693C17.2348 18.67 17.1087 17.6253 16.7675 16.9139C16.4687 16.2906 15.9917 15.9124 15.476 15.6303C14.329 16.5092 13.5215 16.6089 12.7157 16.7085C12.0501 16.7905 11.3844 16.8742 10.5028 17.4834C10.0867 17.7708 9.80902 18.119 9.6662 18.5237C9.51985 18.9381 9.50751 19.4203 9.62652 19.9669C9.64239 20.0224 9.64151 20.0841 9.62035 20.1432C9.56481 20.294 9.39731 20.3724 9.24743 20.3169L8.97766 20.219ZM26.4793 11.492C26.4793 10.7735 27.0621 10.1907 27.7806 10.1907C28.4982 10.1907 29.0818 10.7735 29.0818 11.492V19.4124L34.5037 21.7962C35.1596 22.0845 35.4585 22.8524 35.1693 23.5092C34.8811 24.166 34.1132 24.464 33.4564 24.1757L27.3186 21.478C26.8284 21.2911 26.4793 20.8168 26.4793 20.2605V11.492ZM40.9738 5.43712C41.0285 5.57994 41.0576 5.72629 41.0646 5.87175C41.1757 6.55588 40.7658 7.23472 40.0843 7.44101L36.326 8.59063C35.5837 8.81544 34.7973 8.39668 34.5725 7.65348C34.3477 6.91029 34.7673 6.12477 35.5096 5.89908L35.8676 5.78976C34.9654 5.29895 34.0127 4.90729 33.0261 4.62163C31.7778 4.26106 30.4457 4.06798 29.0571 4.06798C25.1164 4.06798 21.5476 5.66546 18.9654 8.24768C18.3594 8.85351 17.8088 9.51234 17.3203 10.2163C17.2119 10.1819 17.1026 10.1502 16.9906 10.1237C16.8372 9.96623 16.6769 9.81562 16.5101 9.67236L16.3655 9.54365C15.9926 9.24214 15.6109 8.99705 15.2212 8.80398C15.8008 7.96505 16.455 7.18017 17.1757 6.4589C20.2164 3.41824 24.4172 1.53777 29.0571 1.53777C30.6661 1.53777 32.2345 1.76875 33.7279 2.20074C34.9816 2.5622 36.1744 3.06648 37.287 3.69242L36.9343 2.76938C36.6575 2.04205 37.0225 1.22656 37.7507 0.949739C38.4789 0.672914 39.2944 1.0379 39.5703 1.76611L40.9738 5.43712ZM36.1153 30.786C34.7955 31.5274 35.6948 33.6283 37.2217 33.0552C38.0116 32.6691 38.9382 32.0079 39.625 31.4534C40.7367 30.5797 39.7414 28.6886 38.2691 29.3331C38.1844 29.3789 38.1174 29.4195 38.0398 29.4803C37.4404 29.9643 36.7888 30.4095 36.1153 30.786ZM41.1078 26.0271C40.2509 27.4553 42.3156 28.775 43.2493 27.375C43.7394 26.6019 44.152 25.7864 44.5108 24.9444C45.0989 23.5154 43.0703 22.453 42.2425 23.8327C41.8625 24.6112 41.5795 25.283 41.1078 26.0271ZM43.2722 19.4635C43.1831 21.0698 45.5009 21.359 45.7865 19.7403C45.8791 18.8711 45.8694 17.8008 45.7883 16.9289C45.6032 15.2644 43.1735 15.4654 43.266 17.1387C43.3383 17.9092 43.3269 18.6912 43.2722 19.4635ZM42.1402 12.6504C42.7512 14.0469 44.8873 13.3654 44.5267 11.8341C44.5073 11.7688 44.4897 11.7089 44.4615 11.6436C44.1318 10.8387 43.646 9.96418 43.1743 9.23332C42.8464 8.7405 42.2733 8.54214 41.7206 8.71494C40.9342 8.96091 40.5965 9.92715 41.047 10.6033C41.449 11.2293 41.8581 11.9628 42.1402 12.6504Z" fill="#0DA8DB"/>
</svg>
