<svg width="26" height="30" viewBox="0 0 26 30" fill="none" xmlns="http://www.w3.org/2000/svg">
<path fill-rule="evenodd" clip-rule="evenodd" d="M5.94482 7.38037L6.30615 7.37061L6.60645 7.36328C6.25488 6.28418 6.37207 5.29053 7.2168 4.4458C7.36084 4.90967 7.68066 5.29053 8.22754 5.57373C8.48877 5.76904 8.74268 6.00342 8.98682 6.27197C9.03076 6.09375 8.86475 5.87646 8.66455 5.65186C8.8501 5.74463 9.021 5.87158 9.14062 6.11816C9.27979 6.40381 9.27979 6.64551 9.2334 6.95801C9.21143 7.10205 9.17725 7.23877 9.12598 7.36084H9.62647C10.1538 6.23291 9.81934 4.55566 8.74023 3.84766C8.41064 3.63037 8.17139 3.6377 7.7832 3.6377C7.33887 3.6377 7.11182 3.65234 6.73096 3.90381C6.16943 4.2749 5.8252 4.91699 5.67871 5.80811C5.6543 6.25488 5.63477 7.02393 5.94482 7.38037ZM0.288086 29.7876C0.119629 29.7095 0 29.541 0 29.3408V0.488281C0 0.219727 0.217285 0 0.488281 0H5.22461H24.6875C24.9561 0 25.1758 0.217285 25.1758 0.488281V26.7896C25.1758 26.8164 25.1733 26.8408 25.1709 26.8652C25.1025 27.8247 24.79 28.5718 24.2285 29.1064C23.667 29.6387 22.8784 29.9365 21.8555 29.9951C21.8335 29.9976 21.814 30 21.792 30H0.690918C0.524902 30 0.375977 29.9146 0.288086 29.7876ZM24.2017 26.7773V0.974121H5.22461H0.974121V29.0259H21.7896H21.7993C22.583 28.9819 23.1689 28.772 23.5571 28.4033C23.9404 28.0396 24.1528 27.4951 24.2017 26.7773ZM4.10645 21.9897C3.84033 21.9897 3.62305 21.7725 3.62305 21.5015C3.62305 21.2329 3.83789 21.0132 4.10645 21.0132H21.3184C21.5845 21.0132 21.8018 21.2305 21.8018 21.5015C21.8018 21.77 21.5869 21.9897 21.3184 21.9897H4.10645ZM4.18457 18.0103C3.91846 18.0103 3.70117 17.793 3.70117 17.522C3.70117 17.251 3.91602 17.0337 4.18457 17.0337H21.2744C21.5405 17.0337 21.7578 17.251 21.7578 17.522C21.7578 17.793 21.543 18.0103 21.2744 18.0103H4.18457ZM4.10645 14.0283C3.84033 14.0283 3.62305 13.811 3.62305 13.54C3.62305 13.269 3.83789 13.0518 4.10645 13.0518H11.4624C11.7285 13.0518 11.9458 13.269 11.9458 13.54C11.9458 13.811 11.731 14.0283 11.4624 14.0283H4.10645ZM13.3398 14.0283C13.0737 14.0283 12.8564 13.811 12.8564 13.54C12.8564 13.269 13.0713 13.0518 13.3398 13.0518H21.2744C21.5405 13.0518 21.7578 13.269 21.7578 13.54C21.7578 13.811 21.543 14.0283 21.2744 14.0283H13.3398ZM14.1382 10.0488C13.8721 10.0488 13.6548 9.83154 13.6548 9.56055C13.6548 9.29199 13.8696 9.07227 14.1382 9.07227H21.2744C21.5405 9.07227 21.7578 9.28955 21.7578 9.56055C21.7578 9.8291 21.543 10.0488 21.2744 10.0488H14.1382ZM17.2046 25.9692C16.9385 25.9692 16.7212 25.752 16.7212 25.481C16.7212 25.2124 16.936 24.9927 17.2046 24.9927H21.2769C21.543 24.9927 21.7603 25.21 21.7603 25.481C21.7603 25.7495 21.5454 25.9692 21.2769 25.9692H17.2046ZM17.2046 6.06934C16.9385 6.06934 16.7212 5.85205 16.7212 5.58105C16.7212 5.3125 16.936 5.09277 17.2046 5.09277H21.2769C21.543 5.09277 21.7603 5.31006 21.7603 5.58105C21.7603 5.84961 21.5454 6.06934 21.2769 6.06934H17.2046ZM9.73389 9.11133C9.52881 8.70117 9.27002 8.35205 8.96729 8.0249C9.53613 8.24463 10.1172 8.46191 10.5469 8.73291C10.8203 8.90381 10.9619 9.0332 11.0742 9.24072C11.4063 9.86572 11.3989 9.91455 11.4526 10.6421H4.104C4.15771 9.91699 4.15039 9.86572 4.48242 9.24072C4.59229 9.0332 4.73389 8.90381 5.00977 8.73291C5.43945 8.46191 6.02051 8.24463 6.58936 8.0249C6.28662 8.35205 6.02783 8.70117 5.82275 9.11133L6.41602 9.09668L7.77832 10.2808L9.14062 9.09668L9.73389 9.11133ZM7.32178 9.43359L7.59277 8.49609L7.46094 8.35205C7.40234 8.26416 7.3877 8.18848 7.42188 8.12256C7.49268 7.98096 7.6416 8.00781 7.78076 8.00781C7.92481 8.00781 8.10547 7.98096 8.15186 8.16162C8.1665 8.22266 8.14697 8.28613 8.10547 8.35205L7.97363 8.49609L8.24463 9.43359L7.78565 9.79736L7.32178 9.43359Z" fill="white"/>
</svg>
